<svg width="16" height="16" viewBox="0 0 16 16" fill="none" xmlns="http://www.w3.org/2000/svg">
<g clip-path="url(#clip0_2_23)">
<path d="M11 1C11.2652 1 11.5196 1.10536 11.7071 1.29289C11.8946 1.48043 12 1.73478 12 2V14C12 14.2652 11.8946 14.5196 11.7071 14.7071C11.5196 14.8946 11.2652 15 11 15H5C4.73478 15 4.48043 14.8946 4.29289 14.7071C4.10536 14.5196 4 14.2652 4 14V2C4 1.73478 4.10536 1.48043 4.29289 1.29289C4.48043 1.10536 4.73478 1 5 1H11ZM5 0C4.46957 0 3.96086 0.210714 3.58579 0.585786C3.21071 0.960859 3 1.46957 3 2V14C3 14.5304 3.21071 15.0391 3.58579 15.4142C3.96086 15.7893 4.46957 16 5 16H11C11.5304 16 12.0391 15.7893 12.4142 15.4142C12.7893 15.0391 13 14.5304 13 14V2C13 1.46957 12.7893 0.960859 12.4142 0.585786C12.0391 0.210714 11.5304 0 11 0L5 0Z" fill="black"/>
<path d="M8 14C8.26522 14 8.51957 13.8946 8.70711 13.7071C8.89464 13.5196 9 13.2652 9 13C9 12.7348 8.89464 12.4804 8.70711 12.2929C8.51957 12.1054 8.26522 12 8 12C7.73478 12 7.48043 12.1054 7.29289 12.2929C7.10536 12.4804 7 12.7348 7 13C7 13.2652 7.10536 13.5196 7.29289 13.7071C7.48043 13.8946 7.73478 14 8 14Z" fill="black"/>
<g clip-path="url(#clip1_2_23)">
<path d="M7.91667 9.83331C7.91659 9.90766 7.88812 9.97916 7.83709 10.0332C7.78605 10.0873 7.71631 10.1198 7.64209 10.1242C7.56788 10.1285 7.49481 10.1044 7.4378 10.0567C7.38079 10.0089 7.34416 9.94126 7.33538 9.86744L7.33333 9.83331L7.33333 5.87073L6.66454 6.53952C6.61206 6.59183 6.54162 6.6222 6.46756 6.62447C6.39349 6.62673 6.32133 6.60071 6.26575 6.5517C6.21017 6.50269 6.17533 6.43436 6.1683 6.36059C6.16127 6.28682 6.18259 6.21315 6.22792 6.15452L6.25213 6.12711L7.36921 5.01002C7.56288 4.81607 7.88925 4.94032 7.91492 5.2034L7.91667 5.23694L7.91667 9.83331ZM10.7479 8.46044C10.7981 8.51066 10.8283 8.57748 10.8327 8.64837C10.8372 8.71925 10.8156 8.78932 10.7721 8.84544L10.7479 8.87286L9.63079 9.98994C9.43713 10.1839 9.11075 10.0596 9.08508 9.79657L9.08333 9.76302L9.08333 5.16665C9.08342 5.09231 9.11188 5.02081 9.16292 4.96675C9.21395 4.91269 9.2837 4.88016 9.35791 4.87581C9.43212 4.87145 9.5052 4.8956 9.5622 4.94331C9.61921 4.99102 9.65585 5.0587 9.66463 5.13252L9.66667 5.16665L9.66667 9.12923L10.3355 8.46044C10.3902 8.40576 10.4643 8.37504 10.5417 8.37504C10.619 8.37504 10.6932 8.40576 10.7479 8.46044Z" fill="black"/>
</g>
</g>
<defs>
<clipPath id="clip0_2_23">
<rect width="16" height="16" fill="white"/>
</clipPath>
<clipPath id="clip1_2_23">
<rect width="7" height="7" fill="white" transform="matrix(0 1 -1 0 12 4)"/>
</clipPath>
</defs>
</svg>
