<svg width="13" height="13" viewBox="0 0 13 13" fill="none" xmlns="http://www.w3.org/2000/svg">
<path d="M6.77083 3.25L5.14583 5.6875H6.22917V7.3125L7.85417 4.875H6.77083V3.25Z" fill="black"/>
<path fill-rule="evenodd" clip-rule="evenodd" d="M10.2673 5.21975C10.1851 5.91725 9.90473 6.57657 9.45939 7.11965C9.19885 7.43815 8.53667 8.34706 8.39583 8.93748H4.60417C4.46333 8.34652 3.80033 7.43733 3.53979 7.11883C3.09467 6.57551 2.81458 5.91599 2.73271 5.2184C2.65199 4.52229 2.77347 3.81766 3.08262 3.18877C3.39468 2.55508 3.87976 2.02268 4.48175 1.65315C5.08896 1.28 5.78784 1.08274 6.50054 1.08331C7.215 1.08331 7.91483 1.28102 8.51933 1.65396C9.12117 2.02363 9.60606 2.55613 9.91792 3.18986C10.2269 3.81888 10.3482 4.52361 10.2673 5.21975ZM8.01206 8.39581H4.98767C4.87229 8.12958 4.71819 7.86281 4.57465 7.63613C4.38576 7.33822 4.18033 7.05114 3.95931 6.77623C3.57966 6.31301 3.34074 5.75067 3.27085 5.15584C3.20205 4.56303 3.30548 3.96295 3.56877 3.42738C3.83584 2.88547 4.25087 2.43025 4.76585 2.11438C5.28764 1.79384 5.88816 1.62442 6.50054 1.62498C7.11533 1.62498 7.71658 1.79534 8.23523 2.11519C8.75002 2.43113 9.16486 2.88635 9.43177 3.42819C9.69492 3.96389 9.79817 4.56407 9.72915 5.15692C9.659 5.75162 9.4199 6.31376 9.04015 6.77677C8.81902 7.05154 8.61367 7.33863 8.42508 7.63667C8.28154 7.86336 8.12744 8.12958 8.01206 8.39581Z" fill="black"/>
<path d="M4.60417 9.74996C4.60417 9.67813 4.6327 9.60924 4.68349 9.55845C4.73428 9.50766 4.80317 9.47913 4.875 9.47913H8.125C8.19683 9.47913 8.26572 9.50766 8.31651 9.55845C8.3673 9.60924 8.39583 9.67813 8.39583 9.74996C8.39583 9.82179 8.3673 9.89068 8.31651 9.94147C8.26572 9.99226 8.19683 10.0208 8.125 10.0208H4.875C4.80317 10.0208 4.73428 9.99226 4.68349 9.94147C4.6327 9.89068 4.60417 9.82179 4.60417 9.74996Z" fill="black"/>
<path fill-rule="evenodd" clip-rule="evenodd" d="M4.60417 10.5625H8.39583V11.375C8.39583 11.5187 8.33876 11.6564 8.23718 11.758C8.1356 11.8596 7.99783 11.9167 7.85417 11.9167H5.14583C5.00217 11.9167 4.8644 11.8596 4.76282 11.758C4.66123 11.6564 4.60417 11.5187 4.60417 11.375V10.5625ZM5.14583 11.1042H7.85417V11.375H5.14583V11.1042Z" fill="black"/>
</svg>
