<svg width="11" height="11" viewBox="0 0 11 11" fill="none" xmlns="http://www.w3.org/2000/svg">
<g clip-path="url(#clip0_2_694)">
<path d="M8.49702 5.72018C8.64383 5.978 8.75304 6.24655 8.82466 6.52584C8.89627 6.80514 8.93387 7.09339 8.93745 7.39059V7.9438L5.49997 9.66792L2.06249 7.9438C2.06249 7.72896 2.06428 7.52844 2.06786 7.34225C2.07144 7.15605 2.08755 6.97522 2.1162 6.79977C2.14484 6.62431 2.18781 6.44886 2.2451 6.2734C2.3024 6.09795 2.38833 5.91354 2.50292 5.72018L1.37499 5.15622V8.30904C1.47883 8.34484 1.57193 8.39497 1.65429 8.45943C1.73664 8.52388 1.81005 8.59907 1.8745 8.68501C1.93895 8.77095 1.9855 8.86405 2.01415 8.96431C2.04279 9.06457 2.05891 9.1702 2.06249 9.2812V10.9999H0V9.2812C0 9.17378 0.0161132 9.06994 0.0483396 8.96968C0.080566 8.86942 0.127115 8.77453 0.187987 8.68501C0.248859 8.59549 0.320473 8.5203 0.40283 8.45943C0.485186 8.39855 0.580075 8.34843 0.687496 8.30904V4.81247L0 4.46873L5.49997 1.71874L10.9999 4.46873L8.49702 5.72018ZM1.37499 9.2812C1.37499 9.1881 1.34098 9.10754 1.27294 9.0395C1.20491 8.97147 1.12434 8.93745 1.03124 8.93745C0.938146 8.93745 0.85758 8.97147 0.789546 9.0395C0.721513 9.10754 0.687496 9.1881 0.687496 9.2812V10.3124H1.37499V9.2812ZM1.53612 4.46873L5.49997 6.45065L9.46382 4.46873L5.49997 2.4868L1.53612 4.46873ZM8.24995 7.51949C8.24995 7.24378 8.2231 6.98776 8.16939 6.75143C8.11568 6.5151 8.02079 6.2734 7.88472 6.02633L5.49997 7.21871L3.11522 6.02633C2.99705 6.23402 2.90754 6.45244 2.84666 6.6816C2.78579 6.91077 2.75357 7.1471 2.74998 7.39059V7.51949L5.49997 8.89448L8.24995 7.51949Z" fill="#9B03D0"/>
</g>
<defs>
<clipPath id="clip0_2_694">
<rect width="10.56" height="10.56" fill="white" transform="scale(1.04166)"/>
</clipPath>
</defs>
</svg>
