<svg width="18" height="18" viewBox="0 0 18 18" fill="none" xmlns="http://www.w3.org/2000/svg">
<g opacity="0.4">
<path d="M14.6137 15.1155L9.91721 10.419C9.54221 10.7385 9.11096 10.9857 8.62346 11.1607C8.13596 11.3357 7.64596 11.4232 7.15346 11.4232C5.95246 11.4232 4.93596 11.0075 4.10396 10.176C3.27196 9.34397 2.85596 8.32772 2.85596 7.12722C2.85596 5.92672 3.27146 4.90997 4.10246 4.07697C4.93396 3.24347 5.94996 2.82672 7.15046 2.82672C8.35146 2.82672 9.36846 3.24272 10.2015 4.07472C11.0345 4.90672 11.451 5.92347 11.451 7.12497C11.451 7.64597 11.3587 8.15022 11.1742 8.63772C10.9892 9.12522 10.7467 9.54222 10.4467 9.88872L15.1432 14.5845L14.6137 15.1155ZM7.15346 10.6725C8.14846 10.6725 8.98871 10.33 9.67421 9.64497C10.3592 8.95997 10.7017 8.11972 10.7017 7.12422C10.7017 6.12922 10.3592 5.28922 9.67421 4.60422C8.98921 3.91922 8.14921 3.57672 7.15421 3.57672C6.15921 3.57672 5.31896 3.91922 4.63346 4.60422C3.94846 5.28922 3.60596 6.12922 3.60596 7.12422C3.60596 8.11922 3.94846 8.95922 4.63346 9.64422C5.31846 10.3292 6.15846 10.6725 7.15346 10.6725Z" fill="black"/>
</g>
</svg>
