<svg width="32" height="32" viewBox="0 0 32 32" fill="none" xmlns="http://www.w3.org/2000/svg">
<path d="M12.5333 20.4106L16 16.944L19.4667 20.4106L20.4107 19.4666L16.944 16L20.4107 12.5333L19.4667 11.5893L16 15.056L12.5333 11.5893L11.5893 12.5333L15.056 16L11.5893 19.4666L12.5333 20.4106ZM6.15333 25.3333C5.54 25.3333 5.028 25.128 4.61733 24.7173C4.20578 24.3057 4 23.7933 4 23.18V8.81996C4 8.20663 4.20578 7.69463 4.61733 7.28396C5.028 6.8724 5.54 6.66663 6.15333 6.66663H25.8467C26.46 6.66663 26.972 6.8724 27.3827 7.28396C27.7942 7.69463 28 8.20663 28 8.81996V23.18C28 23.7933 27.7947 24.3053 27.384 24.716C26.9724 25.1275 26.46 25.3333 25.8467 25.3333H6.15333ZM6.15333 24H25.8467C26.0511 24 26.2391 23.9146 26.4107 23.744C26.5813 23.5724 26.6667 23.3844 26.6667 23.18V8.81996C26.6667 8.61551 26.5813 8.42751 26.4107 8.25596C26.2391 8.08529 26.0511 7.99996 25.8467 7.99996H6.15333C5.94889 7.99996 5.76089 8.08529 5.58933 8.25596C5.41867 8.42751 5.33333 8.61551 5.33333 8.81996V23.18C5.33333 23.3844 5.41867 23.5724 5.58933 23.744C5.76089 23.9146 5.94889 24 6.15333 24Z" fill="#FA0808"/>
</svg>
