<svg width="16" height="16" viewBox="0 0 16 16" fill="none" xmlns="http://www.w3.org/2000/svg">
<path fill-rule="evenodd" clip-rule="evenodd" d="M8.00004 9.00002C8.70728 9.00002 9.38556 8.71907 9.88566 8.21897C10.3858 7.71887 10.6667 7.0406 10.6667 6.33335C10.6667 5.62611 10.3858 4.94783 9.88566 4.44774C9.38556 3.94764 8.70728 3.66669 8.00004 3.66669C7.2928 3.66669 6.61452 3.94764 6.11442 4.44774C5.61433 4.94783 5.33337 5.62611 5.33337 6.33335C5.33337 7.0406 5.61433 7.71887 6.11442 8.21897C6.61452 8.71907 7.2928 9.00002 8.00004 9.00002ZM8.00004 8.33335C8.26268 8.33335 8.52276 8.28162 8.76541 8.18111C9.00806 8.0806 9.22854 7.93328 9.41425 7.74757C9.59997 7.56185 9.74729 7.34137 9.8478 7.09872C9.94831 6.85607 10 6.596 10 6.33335C10 6.07071 9.94831 5.81064 9.8478 5.56799C9.74729 5.32534 9.59997 5.10486 9.41425 4.91914C9.22854 4.73342 9.00806 4.5861 8.76541 4.48559C8.52276 4.38509 8.26268 4.33335 8.00004 4.33335C7.46961 4.33335 6.9609 4.54407 6.58583 4.91914C6.21075 5.29421 6.00004 5.80292 6.00004 6.33335C6.00004 6.86379 6.21075 7.37249 6.58583 7.74757C6.9609 8.12264 7.46961 8.33335 8.00004 8.33335Z" fill="#2F2F2F"/>
<path fill-rule="evenodd" clip-rule="evenodd" d="M14.6667 8.00001C14.6667 11.682 11.682 14.6667 8.00004 14.6667C4.31804 14.6667 1.33337 11.682 1.33337 8.00001C1.33337 4.31801 4.31804 1.33334 8.00004 1.33334C11.682 1.33334 14.6667 4.31801 14.6667 8.00001ZM11.21 13.07C10.2504 13.6792 9.13675 14.0018 8.00004 14C6.8362 14.0018 5.6972 13.6635 4.72304 13.0267C4.64304 12.9267 4.56171 12.8233 4.47971 12.7167C4.38443 12.5917 4.333 12.4388 4.33337 12.2817C4.33337 11.9227 4.59137 11.6217 4.93637 11.5713C7.21804 11.238 8.78904 11.2667 11.0737 11.583C11.2392 11.607 11.3903 11.69 11.4993 11.8168C11.6083 11.9436 11.6678 12.1055 11.6667 12.2727C11.6667 12.4327 11.6117 12.588 11.5124 12.7093C11.41 12.834 11.309 12.9543 11.21 13.07ZM12.3284 12.1553C12.275 11.5313 11.8014 11.0107 11.165 10.9227C8.82637 10.599 7.19171 10.568 4.84004 10.9117C4.20004 11.005 3.72837 11.5303 3.67237 12.156C2.59748 11.0397 1.99792 9.5497 2.00004 8.00001C2.00004 4.68634 4.68637 2.00001 8.00004 2.00001C11.3137 2.00001 14 4.68634 14 8.00001C14.0022 9.54938 13.4029 11.0391 12.3284 12.1553Z" fill="#2F2F2F"/>
</svg>
