<svg width="16" height="16" viewBox="0 0 16 16" fill="none" xmlns="http://www.w3.org/2000/svg">
<path d="M15.2287 7.89875C15.2075 7.85125 14.6962 6.71812 13.5518 5.57375C12.4918 4.51375 10.6687 3.25 7.99997 3.25C5.33122 3.25 3.5081 4.51375 2.4481 5.57375C1.30372 6.71812 0.79247 7.85125 0.77122 7.89875C0.757303 7.9308 0.750122 7.96537 0.750122 8.00031C0.750122 8.03525 0.757303 8.06982 0.77122 8.10188C0.79247 8.15 1.30372 9.2825 2.4481 10.4269C3.5106 11.4894 5.33185 12.75 7.99997 12.75C10.6681 12.75 12.4918 11.4869 13.5518 10.4269C14.6962 9.2825 15.2075 8.15 15.2287 8.10188C15.2426 8.06982 15.2498 8.03525 15.2498 8.00031C15.2498 7.96537 15.2426 7.9308 15.2287 7.89875ZM13.185 10.0863C11.7431 11.5238 9.99747 12.25 7.99747 12.25C5.99747 12.25 4.25435 11.5219 2.80997 10.0863C2.1954 9.47334 1.67855 8.76973 1.27747 8C1.6793 7.23009 2.197 6.52647 2.81247 5.91375C4.25685 4.47813 5.99997 3.75 7.99997 3.75C9.99997 3.75 11.7431 4.47813 13.1875 5.91375C13.8029 6.52653 14.3206 7.23014 14.7225 8C14.3206 8.7699 13.8029 9.47352 13.1875 10.0863H13.185ZM7.99997 5.25C7.45607 5.25 6.92439 5.41128 6.47215 5.71346C6.01992 6.01563 5.66744 6.44512 5.4593 6.94762C5.25116 7.45012 5.1967 8.00305 5.30281 8.5365C5.40892 9.06995 5.67083 9.55995 6.05543 9.94454C6.44002 10.3291 6.93003 10.5911 7.46347 10.6972C7.99692 10.8033 8.54985 10.7488 9.05235 10.5407C9.55485 10.3325 9.98434 9.98005 10.2865 9.52782C10.5887 9.07558 10.75 8.5439 10.75 8C10.7491 7.27091 10.4591 6.57192 9.9436 6.05637C9.42806 5.54082 8.72906 5.25083 7.99997 5.25ZM7.99997 10.25C7.55496 10.25 7.11995 10.118 6.74994 9.87081C6.37993 9.62357 6.09154 9.27217 5.92124 8.86104C5.75094 8.4499 5.70639 7.9975 5.7932 7.56105C5.88002 7.12459 6.09431 6.72368 6.40898 6.40901C6.72365 6.09434 7.12456 5.88005 7.56102 5.79323C7.99748 5.70642 8.44987 5.75097 8.86101 5.92127C9.27214 6.09157 9.62354 6.37996 9.87078 6.74997C10.118 7.11998 10.25 7.55499 10.25 8C10.25 8.59674 10.0129 9.16903 9.59096 9.59099C9.169 10.0129 8.59671 10.25 7.99997 10.25Z" fill="#2F2F2F"/>
</svg>
