<svg width="20" height="20" viewBox="0 0 20 20" fill="none" xmlns="http://www.w3.org/2000/svg">
<path d="M17.1983 11.78L17.1567 11.3658L17.1442 11.3667L17.13 11.3692L17.1983 11.78ZM17.1983 11.78L17.24 12.195L17.2542 12.1933L17.2675 12.1908L17.1983 11.78ZM13.8317 16.3483L14.0958 16.0258L14.0917 16.0233L13.8317 16.3483ZM13.8317 16.3483L13.5675 16.6708L13.5717 16.6742L13.8317 16.3483ZM6.16833 16.3483L5.90417 16.0267L5.89833 16.0317L5.89167 16.0375L6.16833 16.3483ZM6.16833 16.3483L6.4325 16.6717L6.43917 16.6658L6.445 16.6608L6.16833 16.3483ZM2.80083 8.22001V7.80334H2.78083L2.76 7.80501L2.80083 8.22001ZM2.80083 8.22001V8.63667H2.82167L2.8425 8.63417L2.80083 8.22001ZM12.1933 2.75917C12.1808 2.60808 12.1633 2.45744 12.1408 2.30751C12.1218 2.17484 12.0818 2.04603 12.0225 1.92584L11.2817 2.30834C11.29 2.32501 11.3042 2.35834 11.3183 2.44501C11.3342 2.53667 11.3458 2.65584 11.365 2.84167L12.1933 2.75917ZM12.3567 3.76167C12.3467 3.74917 12.3167 3.69834 12.2842 3.52001C12.2454 3.26751 12.2162 3.01375 12.195 2.75917L11.365 2.84167C11.3983 3.17584 11.4258 3.45251 11.4642 3.66751C11.5017 3.87751 11.56 4.09167 11.6942 4.26751L12.3567 3.76167ZM12.7433 3.92167C12.6705 3.93147 12.5964 3.92183 12.5285 3.89373C12.4605 3.86563 12.4013 3.82007 12.3567 3.76167L11.6933 4.26667C11.8272 4.44216 12.0051 4.57909 12.2089 4.66354C12.4128 4.748 12.6355 4.77697 12.8542 4.74751L12.7433 3.92167ZM13.5667 3.32751C13.2958 3.55001 13.1108 3.70084 12.965 3.80167C12.8158 3.90501 12.7583 3.91917 12.7433 3.92167L12.8542 4.74751C13.0725 4.71834 13.265 4.60834 13.4408 4.48584C13.62 4.36084 13.8342 4.18584 14.095 3.97251L13.5667 3.32751ZM14.2767 2.86001C14.1433 2.90251 14.0308 2.97001 13.9242 3.04584C13.8208 3.11917 13.7033 3.21584 13.5667 3.32751L14.095 3.97251C14.2392 3.85417 14.3325 3.77834 14.4075 3.72501C14.4447 3.695 14.4863 3.67084 14.5308 3.65334L14.2767 2.86001ZM15.1542 2.90334C14.8765 2.78319 14.5648 2.7678 14.2767 2.86001L14.5308 3.65334C14.6267 3.62299 14.7303 3.62831 14.8225 3.66834L15.1542 2.90334ZM15.8142 3.44001C15.6892 3.31501 15.5817 3.20667 15.4867 3.12334C15.3881 3.03296 15.2759 2.95871 15.1542 2.90334L14.8225 3.66834C14.84 3.67584 14.8717 3.69334 14.9383 3.75167C15.0075 3.81167 15.0925 3.89667 15.225 4.02917L15.8142 3.44001ZM16.5583 4.18417L15.8142 3.44001L15.225 4.02917L15.9692 4.77334L16.5583 4.18417ZM17.095 4.84417C17.0393 4.72241 16.9648 4.6102 16.8742 4.51167C16.7908 4.41667 16.6825 4.30917 16.5583 4.18417L15.9692 4.77334C16.1017 4.90584 16.1858 4.99084 16.2475 5.06001C16.3058 5.12667 16.3225 5.15834 16.33 5.17584L17.095 4.84417ZM17.1383 5.72167C17.2305 5.43357 17.2151 5.12179 17.095 4.84417L16.33 5.17584C16.3698 5.26817 16.3748 5.37176 16.3442 5.46751L17.1383 5.72167ZM16.6708 6.43167C16.7825 6.29501 16.8792 6.17751 16.9525 6.07417C17.0275 5.96751 17.0958 5.85501 17.1383 5.72167L16.3442 5.46751C16.3269 5.51197 16.3031 5.55355 16.2733 5.59084C16.194 5.69744 16.1114 5.80165 16.0258 5.90334L16.6708 6.43167ZM16.0767 7.25501C16.0792 7.24001 16.0933 7.18251 16.1967 7.03334C16.2975 6.88751 16.4483 6.70251 16.6708 6.43167L16.0258 5.90334C15.8125 6.16417 15.6367 6.37834 15.5125 6.55751C15.39 6.73251 15.28 6.92584 15.2508 7.14417L16.0767 7.25501ZM16.2367 7.64167C16.1783 7.59706 16.1327 7.53779 16.1046 7.46988C16.0765 7.40197 16.0669 7.32784 16.0767 7.25501L15.2508 7.14417C15.2215 7.36276 15.2506 7.5852 15.335 7.78893C15.4195 7.99266 15.5563 8.17042 15.7317 8.30417L16.2367 7.64167ZM17.2392 7.80417C16.89 7.76917 16.6533 7.74584 16.4783 7.71417C16.3 7.68167 16.2492 7.65167 16.2367 7.64167L15.7317 8.30417C15.9067 8.43751 16.1208 8.49584 16.3317 8.53417C16.5458 8.57251 16.8217 8.60084 17.1567 8.63417L17.2392 7.80417ZM18.0725 7.97584C17.9523 7.91652 17.8235 7.87658 17.6908 7.85751C17.5658 7.83667 17.4142 7.82167 17.2392 7.80417L17.1558 8.63334C17.3425 8.65251 17.4617 8.66417 17.5533 8.68001C17.6005 8.68531 17.6465 8.69767 17.69 8.71667L18.0725 7.97584ZM18.6617 8.62667C18.5504 8.34563 18.3411 8.11442 18.0725 7.97584L17.69 8.71667C17.7796 8.76274 17.8495 8.83972 17.8867 8.93334L18.6617 8.62667ZM18.7492 9.47251C18.7492 9.29667 18.7492 9.14417 18.7408 9.01751C18.7352 8.88387 18.7085 8.75196 18.6617 8.62667L17.8867 8.93334C17.8933 8.95084 17.9033 8.98584 17.9092 9.07334C17.9157 9.20657 17.9179 9.33997 17.9158 9.47334L18.7492 9.47251ZM18.7492 10.5258V9.47251H17.9158V10.5258H18.7492ZM18.6617 11.3708C18.7133 11.2408 18.7325 11.1108 18.7408 10.98C18.7492 10.8542 18.7492 10.7017 18.7492 10.5258H17.9158C17.9158 10.7125 17.9158 10.8325 17.9092 10.925C17.9088 10.9725 17.9012 11.0197 17.8867 11.065L18.6617 11.3708ZM18.0725 12.0225C18.3413 11.8837 18.5506 11.6522 18.6617 11.3708L17.8867 11.065C17.8495 11.1586 17.7796 11.2356 17.69 11.2817L18.0725 12.0225ZM17.2392 12.1942C17.4142 12.1767 17.5667 12.1608 17.6908 12.14C17.82 12.1192 17.9475 12.0867 18.0717 12.0233L17.69 11.2817C17.6466 11.3007 17.6005 11.3131 17.5533 11.3183C17.4617 11.3342 17.3425 11.3458 17.1567 11.365L17.2392 12.1942ZM16.2375 12.3567C16.25 12.3467 16.3008 12.3158 16.4792 12.2842C16.6542 12.2525 16.8908 12.2283 17.2392 12.1942L17.1567 11.365C16.8225 11.3983 16.5458 11.425 16.3308 11.4642C16.1208 11.5017 15.9075 11.56 15.7317 11.6933L16.2375 12.3567ZM16.0767 12.7433C16.067 12.6704 16.0767 12.5962 16.105 12.5283C16.1332 12.4604 16.1789 12.4012 16.2375 12.3567L15.7317 11.6933C15.5562 11.8272 15.4192 12.0051 15.3348 12.209C15.2503 12.4128 15.2214 12.6355 15.2508 12.8542L16.0767 12.7433ZM16.6708 13.5667C16.5059 13.3716 16.3478 13.1709 16.1967 12.965C16.0933 12.8167 16.0792 12.7583 16.0767 12.7433L15.2517 12.855C15.2808 13.0733 15.3908 13.265 15.5125 13.4408C15.6375 13.6192 15.8125 13.8342 16.0258 14.0942L16.6708 13.5667ZM17.1383 14.2767C17.0954 14.1499 17.0326 14.0306 16.9525 13.9233C16.8624 13.8015 16.7684 13.6826 16.6708 13.5667L16.0258 14.0942C16.1442 14.2392 16.22 14.3317 16.2733 14.4075C16.303 14.4446 16.3268 14.4858 16.3442 14.53L17.1383 14.2767ZM17.095 15.1542C17.2151 14.8766 17.2305 14.5648 17.1383 14.2767L16.3442 14.53C16.375 14.626 16.37 14.7299 16.33 14.8225L17.095 15.1542ZM16.5592 15.8133C16.6833 15.6892 16.7908 15.5817 16.8742 15.4867C16.9608 15.3875 17.0392 15.2833 17.095 15.1542L16.33 14.8225C16.3082 14.8648 16.2801 14.9036 16.2467 14.9375C16.157 15.0358 16.0645 15.1314 15.9692 15.2242L16.5592 15.8133ZM15.8142 16.5583L16.5592 15.8133L15.9692 15.2242L15.225 15.9692L15.8142 16.5583ZM15.1542 17.0942C15.2825 17.0383 15.3875 16.9608 15.4867 16.8742C15.5817 16.7908 15.6892 16.6825 15.8142 16.5575L15.225 15.9692C15.0925 16.1017 15.0075 16.1858 14.9383 16.2467C14.9042 16.2801 14.8651 16.3082 14.8225 16.33L15.1542 17.0942ZM14.2767 17.1383C14.5649 17.2303 14.8766 17.2146 15.1542 17.0942L14.8225 16.33C14.7302 16.3698 14.6266 16.3748 14.5308 16.3442L14.2767 17.1383ZM13.5667 16.67C13.7033 16.7817 13.8208 16.8783 13.9242 16.9517C14.0308 17.0275 14.1433 17.0958 14.2767 17.1383L14.5308 16.3442C14.4864 16.3269 14.4448 16.3031 14.4075 16.2733C14.3009 16.1937 14.1967 16.1109 14.095 16.025L13.5667 16.67ZM12.7433 16.0767C12.7583 16.0783 12.8167 16.0933 12.965 16.1967C13.1108 16.2975 13.2958 16.4483 13.5667 16.67L14.095 16.025C13.8342 15.8125 13.62 15.6367 13.4408 15.5117C13.2658 15.39 13.0725 15.28 12.8542 15.2508L12.7433 16.0767ZM12.3567 16.2367C12.4013 16.1783 12.4605 16.1327 12.5285 16.1046C12.5964 16.0765 12.6705 16.0669 12.7433 16.0767L12.8542 15.2508C12.6357 15.2214 12.4133 15.2504 12.2095 15.3347C12.0058 15.419 11.828 15.5556 11.6942 15.7308L12.3567 16.2367ZM12.1942 17.2392C12.2292 16.89 12.2525 16.6533 12.2842 16.4783C12.3167 16.3 12.3467 16.2492 12.3567 16.2367L11.6942 15.7308C11.5608 15.9058 11.5025 16.1208 11.4642 16.3308C11.4258 16.545 11.3975 16.8208 11.3642 17.1558L12.1942 17.2392ZM12.0225 18.0725C12.0867 17.9475 12.1183 17.82 12.14 17.6908C12.1617 17.5658 12.1767 17.4142 12.1942 17.2392L11.3642 17.1558C11.3526 17.2888 11.3379 17.4213 11.3183 17.5533C11.313 17.6005 11.3007 17.6466 11.2817 17.69L12.0225 18.0725ZM11.3717 18.6617C11.6527 18.5504 11.8839 18.3411 12.0225 18.0725L11.2817 17.69C11.2356 17.7796 11.1586 17.8495 11.065 17.8867L11.3717 18.6617ZM10.5258 18.7492C10.7017 18.7492 10.8542 18.7492 10.9808 18.7408C11.1108 18.7325 11.2417 18.7133 11.3717 18.6617L11.065 17.8867C11.0197 17.9012 10.9725 17.9088 10.925 17.9092C10.8333 17.9158 10.7125 17.9158 10.525 17.9158L10.5258 18.7492ZM9.4725 18.7492H10.5258L10.525 17.9158H9.4725V18.7492ZM8.62667 18.6617C8.7575 18.7133 8.8875 18.7325 9.01833 18.7408C9.14417 18.7492 9.29667 18.7492 9.4725 18.7492V17.9158C9.28583 17.9158 9.16583 17.9158 9.07333 17.9092C9.0258 17.9087 8.97861 17.9012 8.93333 17.8867L8.62667 18.6617ZM7.97583 18.0725C8.11441 18.3411 8.34563 18.5504 8.62667 18.6617L8.93333 17.8867C8.83971 17.8495 8.76274 17.7796 8.71667 17.69L7.97583 18.0725ZM7.80417 17.2392C7.82167 17.4142 7.8375 17.5667 7.8575 17.6908C7.87917 17.82 7.91167 17.9475 7.97583 18.0725L8.71667 17.69C8.69767 17.6465 8.68531 17.6005 8.68 17.5533C8.66048 17.4216 8.64491 17.2893 8.63333 17.1567L7.80417 17.2392ZM7.64167 16.2367C7.65167 16.2492 7.68167 16.3 7.71417 16.4783C7.74583 16.6533 7.76917 16.8908 7.80417 17.2392L8.63333 17.1567C8.6 16.8225 8.5725 16.5458 8.53417 16.3308C8.49667 16.1208 8.43833 15.9067 8.30417 15.7308L7.64167 16.2367ZM7.255 16.0767C7.32784 16.0669 7.40197 16.0765 7.46988 16.1046C7.53778 16.1327 7.59705 16.1783 7.64167 16.2367L8.30417 15.7308C8.17042 15.5555 7.99266 15.4195 7.78893 15.335C7.5852 15.2506 7.36275 15.2215 7.14417 15.2508L7.255 16.0767ZM6.43167 16.6708C6.7025 16.4483 6.8875 16.2975 7.03333 16.1967C7.1825 16.0933 7.24 16.0783 7.255 16.0767L7.14417 15.2508C6.92583 15.28 6.73333 15.39 6.5575 15.5125C6.37833 15.6367 6.16417 15.8125 5.90333 16.0258L6.43167 16.6708ZM5.72167 17.1383C5.855 17.0958 5.9675 17.0283 6.07417 16.9525C6.1775 16.8792 6.295 16.7825 6.43167 16.6708L5.90333 16.0258C5.80164 16.1114 5.69743 16.194 5.59083 16.2733C5.55356 16.3031 5.51197 16.327 5.4675 16.3442L5.72167 17.1383ZM4.84417 17.0958C5.12179 17.216 5.43356 17.2306 5.72167 17.1383L5.4675 16.3442C5.37175 16.3748 5.26816 16.3698 5.17583 16.33L4.84417 17.0958ZM4.18417 16.5583C4.30917 16.6833 4.41667 16.7917 4.51167 16.875C4.61 16.9608 4.71583 17.04 4.84417 17.0958L5.17583 16.33C5.13321 16.3083 5.09415 16.2802 5.06 16.2467C4.96172 16.157 4.86613 16.0645 4.77333 15.9692L4.18417 16.5583ZM3.44 15.8142L4.18417 16.5583L4.77333 15.9692L4.02917 15.225L3.44 15.8142ZM2.90333 15.1542C2.95917 15.2825 3.0375 15.3875 3.12417 15.4867C3.2075 15.5817 3.31583 15.6892 3.44 15.8142L4.02917 15.225C3.93357 15.1322 3.84075 15.0366 3.75083 14.9383C3.71735 14.9042 3.68925 14.8651 3.6675 14.8225L2.90333 15.1542ZM2.86 14.2767C2.76779 14.5648 2.78319 14.8766 2.90333 15.1542L3.6675 14.8225C3.62748 14.7303 3.62298 14.6267 3.65333 14.5308L2.86 14.2767ZM3.3275 13.5667C3.21583 13.7033 3.11917 13.8208 3.04583 13.9242C2.96577 14.0312 2.90306 14.1501 2.86 14.2767L3.65333 14.5308C3.67083 14.4863 3.695 14.4447 3.725 14.4075C3.77833 14.3325 3.85417 14.2392 3.9725 14.095L3.3275 13.5667ZM3.92167 12.7433C3.91917 12.7583 3.905 12.8158 3.80167 12.965C3.7 13.1108 3.55 13.2958 3.3275 13.5667L3.9725 14.095C4.18583 13.8342 4.36167 13.62 4.48583 13.4408C4.60833 13.2658 4.71833 13.0725 4.7475 12.8542L3.92167 12.7433ZM3.76167 12.3567C3.82007 12.4013 3.86563 12.4606 3.89373 12.5285C3.92183 12.5964 3.93147 12.6705 3.92167 12.7433L4.7475 12.8542C4.77681 12.6356 4.74776 12.4131 4.66331 12.2094C4.57887 12.0057 4.44202 11.8279 4.26667 11.6942L3.76167 12.3567ZM2.75917 12.195C3.10833 12.2292 3.345 12.2525 3.52 12.2842C3.69833 12.3167 3.74917 12.3467 3.76167 12.3567L4.26667 11.6933C4.09167 11.56 3.8775 11.5017 3.66667 11.4642C3.4525 11.4258 3.17667 11.3975 2.84167 11.3642L2.75917 12.195ZM1.92583 12.0225C2.05083 12.0867 2.17833 12.1183 2.3075 12.14C2.4325 12.1617 2.58333 12.1775 2.75917 12.195L2.8425 11.365C2.70956 11.3534 2.577 11.3379 2.445 11.3183C2.39786 11.313 2.35179 11.3007 2.30833 11.2817L1.92583 12.0225ZM1.33667 11.3708C1.44774 11.6522 1.65707 11.8837 1.92583 12.0225L2.30833 11.2817C2.21874 11.2356 2.14887 11.1586 2.11167 11.065L1.33667 11.3708ZM1.25 10.5275C1.25 10.7033 1.25 10.8558 1.25833 10.9825C1.26373 11.1159 1.29045 11.2476 1.3375 11.3725L2.1125 11.0667C2.09801 11.0214 2.09043 10.9742 2.09 10.9267C2.08381 10.7934 2.08158 10.66 2.08333 10.5267L1.25 10.5275ZM1.25 9.47417V10.5275H2.08333V9.47417H1.25ZM1.3375 8.62834C1.29064 8.75391 1.26392 8.88609 1.25833 9.02001C1.25 9.14584 1.25 9.29834 1.25 9.47417H2.08333C2.08333 9.28751 2.08333 9.16751 2.09 9.07501C2.0904 9.02747 2.09799 8.98027 2.1125 8.93501L1.3375 8.62834ZM1.92667 7.97751C1.65805 8.11608 1.44874 8.3473 1.3375 8.62834L2.1125 8.93501C2.14971 8.84138 2.21957 8.76441 2.30917 8.71834L1.92667 7.97751ZM2.76 7.80501C2.585 7.82251 2.4325 7.83917 2.30833 7.85917C2.17567 7.87824 2.04685 7.91818 1.92667 7.97751L2.30917 8.71834C2.32583 8.71001 2.35917 8.69584 2.44583 8.68167C2.5375 8.66584 2.65667 8.65417 2.8425 8.63501L2.76 7.80501ZM3.7625 7.64334C3.75 7.65334 3.69917 7.68334 3.52083 7.71584C3.34583 7.74751 3.10917 7.77001 2.76 7.80501L2.8425 8.63501C3.17667 8.60167 3.45417 8.57417 3.66833 8.53584C3.87917 8.49834 4.09333 8.44001 4.26833 8.30584L3.7625 7.64334ZM3.9225 7.25667C3.9323 7.32951 3.92266 7.40364 3.89456 7.47155C3.86646 7.53946 3.8209 7.59872 3.7625 7.64334L4.26833 8.30584C4.44354 8.17199 4.58022 7.99419 4.66452 7.79047C4.74882 7.58674 4.77773 7.36351 4.74833 7.14501L3.9225 7.25667ZM3.32833 6.43251C3.55083 6.70417 3.70167 6.88917 3.80333 7.03501C3.90667 7.18417 3.92 7.24167 3.9225 7.25667L4.74833 7.14501C4.71917 6.92667 4.60917 6.73501 4.48667 6.55917C4.3625 6.38001 4.18667 6.16584 3.97333 5.90501L3.32833 6.43251ZM2.86083 5.72251C2.9025 5.85584 2.97083 5.96917 3.04667 6.07584C3.12 6.17834 3.21667 6.29667 3.32833 6.43251L3.97333 5.90501C3.88774 5.80304 3.80521 5.69855 3.72583 5.59167C3.6959 5.55469 3.67174 5.51339 3.65417 5.46917L2.86083 5.72251ZM2.90417 4.84584C2.78423 5.12322 2.76883 5.43465 2.86083 5.72251L3.65417 5.46917C3.62381 5.37333 3.62914 5.26973 3.66917 5.17751L2.90417 4.84584ZM3.44083 4.18584C3.31583 4.31001 3.2075 4.41751 3.12417 4.51334C3.0338 4.61191 2.95955 4.72412 2.90417 4.84584L3.66917 5.17751C3.69098 5.13519 3.71908 5.09558 3.7525 5.06167C3.84177 4.96305 3.93433 4.86744 4.03 4.77501L3.44083 4.18584ZM4.185 3.44084L3.44083 4.18584L4.03 4.77501L4.77417 4.03001L4.185 3.44084ZM4.845 2.90501C4.72332 2.96045 4.61111 3.03469 4.5125 3.12501C4.4175 3.20834 4.30917 3.31584 4.185 3.44084L4.77417 4.03001C4.90667 3.89834 4.99167 3.81334 5.06083 3.75251C5.1275 3.69417 5.15917 3.67751 5.17667 3.66917L4.845 2.90501ZM5.7225 2.86084C5.43429 2.76889 5.12252 2.78458 4.845 2.90501L5.17667 3.66917C5.2689 3.62915 5.37249 3.62465 5.46833 3.65501L5.7225 2.86084ZM6.4325 3.32917C6.29583 3.21751 6.17833 3.12084 6.075 3.04751C5.96806 2.96712 5.84909 2.90412 5.7225 2.86084L5.46833 3.65501C5.51279 3.67225 5.55437 3.69613 5.59167 3.72584C5.66667 3.78001 5.76 3.85584 5.905 3.97417L6.4325 3.32917ZM7.25583 3.92334C7.24083 3.92084 7.18333 3.90667 7.03417 3.80334C6.82821 3.65197 6.62753 3.49438 6.4325 3.32917L5.905 3.97417C6.165 4.18751 6.38 4.36334 6.55833 4.48751C6.73333 4.60917 6.92667 4.71917 7.145 4.74917L7.25583 3.92334ZM7.6425 3.76251C7.59798 3.82106 7.53875 3.86678 7.47084 3.89503C7.40293 3.92328 7.32874 3.93305 7.25583 3.92334L7.145 4.74917C7.36364 4.77873 7.58621 4.74905 7.79009 4.66475C7.99398 4.58044 8.17192 4.44368 8.30583 4.26834L7.6425 3.76251ZM7.805 2.76084C7.77 3.10917 7.74667 3.34667 7.715 3.52084C7.6825 3.69917 7.6525 3.75001 7.6425 3.76251L8.30583 4.26834C8.43917 4.09334 8.4975 3.87917 8.535 3.66834C8.57333 3.45417 8.60167 3.17834 8.635 2.84334L7.805 2.76084ZM7.97667 1.92751C7.9125 2.05251 7.88 2.18001 7.85833 2.30917C7.8375 2.43417 7.8225 2.58501 7.805 2.76084L8.63417 2.84417C8.64573 2.71123 8.66129 2.57867 8.68083 2.44667C8.68609 2.39953 8.69845 2.35345 8.7175 2.31001L7.97667 1.92751ZM8.62833 1.33834C8.34684 1.44962 8.11529 1.65842 7.97667 1.92751L8.7175 2.31001C8.76357 2.22041 8.84054 2.15055 8.93417 2.11334L8.62833 1.33834ZM9.47333 1.25084C9.2975 1.25084 9.145 1.25084 9.01833 1.25917C8.88494 1.26457 8.75327 1.29129 8.62833 1.33834L8.93417 2.11334C8.97943 2.09883 9.02663 2.09124 9.07417 2.09084C9.16583 2.08417 9.28667 2.08417 9.47417 2.08417L9.47333 1.25084ZM10.5267 1.25084H9.47333V2.08417H10.5267V1.25084ZM11.3725 1.33834C11.2469 1.29146 11.1147 1.26474 10.9808 1.25917C10.855 1.25084 10.7025 1.25084 10.5267 1.25084V2.08417C10.7133 2.08417 10.8333 2.08417 10.9258 2.09084C10.9733 2.09151 11.0205 2.09909 11.0658 2.11334L11.3725 1.33834ZM12.0233 1.92751C11.8846 1.65874 11.653 1.44941 11.3717 1.33834L11.0658 2.11334C11.1595 2.15055 11.2364 2.22041 11.2825 2.31001L12.0233 1.92751ZM12.9167 10C12.9167 10.7736 12.6094 11.5154 12.0624 12.0624C11.5154 12.6094 10.7735 12.9167 10 12.9167V13.75C10.9946 13.75 11.9484 13.3549 12.6516 12.6517C13.3549 11.9484 13.75 10.9946 13.75 10H12.9167ZM10 7.08334C10.7735 7.08334 11.5154 7.39063 12.0624 7.93761C12.6094 8.48459 12.9167 9.22646 12.9167 10H13.75C13.75 9.00544 13.3549 8.05162 12.6516 7.34836C11.9484 6.64509 10.9946 6.25001 10 6.25001V7.08334ZM7.08333 10C7.08333 9.22646 7.39062 8.48459 7.93761 7.93761C8.48459 7.39063 9.22645 7.08334 10 7.08334V6.25001C9.00544 6.25001 8.05161 6.64509 7.34835 7.34836C6.64509 8.05162 6.25 9.00544 6.25 10H7.08333ZM10 12.9167C9.22645 12.9167 8.48459 12.6094 7.93761 12.0624C7.39062 11.5154 7.08333 10.7736 7.08333 10H6.25C6.25 10.9946 6.64509 11.9484 7.34835 12.6517C8.05161 13.3549 9.00544 13.75 10 13.75V12.9167Z" fill="#9B03D0"/>
</svg>
