<svg width="45" height="45" viewBox="0 0 45 45" fill="none" xmlns="http://www.w3.org/2000/svg">
<path d="M13.5 33.27L22.5 24.27L31.5 33.27L33.27 31.5L24.27 22.5L33.27 13.5L31.5 11.73L22.5 20.73L13.5 11.73L11.73 13.5L20.73 22.5L11.73 31.5L13.5 33.27ZM22.5075 45C19.3975 45 16.4725 44.41 13.7325 43.23C10.9942 42.0483 8.61167 40.445 6.585 38.42C4.55833 36.3967 2.95417 34.0167 1.7725 31.28C0.590834 28.5433 0 25.6192 0 22.5075C0 19.3975 0.59 16.4725 1.77 13.7325C2.95167 10.9942 4.555 8.61167 6.58 6.585C8.60333 4.55833 10.9833 2.95417 13.72 1.7725C16.4567 0.590834 19.3808 0 22.4925 0C25.6025 0 28.5275 0.59 31.2675 1.77C34.0058 2.95167 36.3883 4.555 38.415 6.58C40.4417 8.60333 42.0458 10.9833 43.2275 13.72C44.4092 16.4567 45 19.3808 45 22.4925C45 25.6025 44.41 28.5275 43.23 31.2675C42.0483 34.0058 40.445 36.3883 38.42 38.415C36.3967 40.4417 34.0167 42.0458 31.28 43.2275C28.5433 44.4092 25.6192 45 22.5075 45ZM22.5 42.5C28.0833 42.5 32.8125 40.5625 36.6875 36.6875C40.5625 32.8125 42.5 28.0833 42.5 22.5C42.5 16.9167 40.5625 12.1875 36.6875 8.3125C32.8125 4.4375 28.0833 2.5 22.5 2.5C16.9167 2.5 12.1875 4.4375 8.3125 8.3125C4.4375 12.1875 2.5 16.9167 2.5 22.5C2.5 28.0833 4.4375 32.8125 8.3125 36.6875C12.1875 40.5625 16.9167 42.5 22.5 42.5Z" fill="#FA0808"/>
</svg>
