<svg width="12" height="12" viewBox="0 0 12 12" fill="none" xmlns="http://www.w3.org/2000/svg">
<path d="M11.4216 5.92406C11.4056 5.88844 11.0222 5.03859 10.1639 4.18031C9.36892 3.38531 8.00157 2.4375 6.00001 2.4375C3.99845 2.4375 2.6311 3.38531 1.8361 4.18031C0.977821 5.03859 0.594383 5.88844 0.578446 5.92406C0.568008 5.9481 0.562622 5.97403 0.562622 6.00023C0.562622 6.02644 0.568008 6.05237 0.578446 6.07641C0.594383 6.1125 0.977821 6.96187 1.8361 7.82016C2.63298 8.61703 3.99891 9.5625 6.00001 9.5625C8.0011 9.5625 9.36892 8.61516 10.1639 7.82016C11.0222 6.96187 11.4056 6.1125 11.4216 6.07641C11.432 6.05237 11.4374 6.02644 11.4374 6.00023C11.4374 5.97403 11.432 5.9481 11.4216 5.92406ZM9.88876 7.56469C8.80735 8.64281 7.49813 9.1875 5.99813 9.1875C4.49813 9.1875 3.19079 8.64141 2.10751 7.56469C1.64658 7.10501 1.25894 6.5773 0.958133 6C1.2595 5.42257 1.64778 4.89485 2.10938 4.43531C3.19266 3.35859 4.50001 2.8125 6.00001 2.8125C7.50001 2.8125 8.80735 3.35859 9.89063 4.43531C10.3522 4.8949 10.7405 5.42261 11.0419 6C10.7405 6.57743 10.3522 7.10514 9.89063 7.56469H9.88876ZM6.00001 3.9375C5.59208 3.9375 5.19332 4.05846 4.85415 4.28509C4.51497 4.51172 4.25061 4.83384 4.09451 5.21072C3.9384 5.58759 3.89756 6.00229 3.97714 6.40237C4.05672 6.80246 4.25315 7.16996 4.5416 7.45841C4.83005 7.74685 5.19755 7.94329 5.59763 8.02287C5.99772 8.10245 6.41242 8.06161 6.78929 7.9055C7.16617 7.7494 7.48828 7.48504 7.71491 7.14586C7.94155 6.80669 8.06251 6.40792 8.06251 6C8.06189 5.45318 7.84439 4.92894 7.45773 4.54228C7.07107 4.15562 6.54683 3.93812 6.00001 3.9375ZM6.00001 7.6875C5.66625 7.6875 5.33999 7.58853 5.06248 7.4031C4.78498 7.21768 4.56868 6.95413 4.44096 6.64578C4.31324 6.33743 4.27982 5.99813 4.34493 5.67078C4.41005 5.34344 4.57077 5.04276 4.80677 4.80676C5.04277 4.57076 5.34345 4.41004 5.67079 4.34492C5.99814 4.27981 6.33744 4.31323 6.64579 4.44095C6.95414 4.56868 7.21769 4.78497 7.40311 5.06248C7.58854 5.33998 7.68751 5.66624 7.68751 6C7.68751 6.44755 7.50972 6.87677 7.19325 7.19324C6.87678 7.50971 6.44756 7.6875 6.00001 7.6875Z" fill="white"/>
</svg>
