<svg width="28" height="28" viewBox="0 0 28 28" fill="none" xmlns="http://www.w3.org/2000/svg">
<g opacity="0.6">
<path fill-rule="evenodd" clip-rule="evenodd" d="M7.00005 12.6001C7.74265 12.6001 8.45485 12.3051 8.97995 11.78C9.50505 11.2549 9.80005 10.5427 9.80005 9.8001C9.80005 9.05749 9.50505 8.3453 8.97995 7.8202C8.45485 7.2951 7.74265 7.0001 7.00005 7.0001C6.25744 7.0001 5.54525 7.2951 5.02015 7.8202C4.49505 8.3453 4.20005 9.05749 4.20005 9.8001C4.20005 10.5427 4.49505 11.2549 5.02015 11.78C5.54525 12.3051 6.25744 12.6001 7.00005 12.6001ZM7.00005 14.0001C7.5516 14.0001 8.09775 13.8915 8.60732 13.6804C9.11689 13.4693 9.57989 13.16 9.9699 12.7699C10.3599 12.3799 10.6693 11.9169 10.8803 11.4074C11.0914 10.8978 11.2 10.3516 11.2 9.8001C11.2 9.24855 11.0914 8.70239 10.8803 8.19283C10.6693 7.68326 10.3599 7.22026 9.9699 6.83025C9.57989 6.44024 9.11689 6.13087 8.60732 5.9198C8.09775 5.70873 7.5516 5.6001 7.00005 5.6001C5.88614 5.6001 4.81785 6.0426 4.0302 6.83025C3.24255 7.6179 2.80005 8.68619 2.80005 9.8001C2.80005 10.914 3.24255 11.9823 4.0302 12.7699C4.81785 13.5576 5.88614 14.0001 7.00005 14.0001Z" fill="black"/>
<path fill-rule="evenodd" clip-rule="evenodd" d="M5.3957 12.4545C5.46089 12.5195 5.51261 12.5968 5.5479 12.6818C5.58318 12.7669 5.60135 12.858 5.60135 12.9501C5.60135 13.0422 5.58318 13.1334 5.5479 13.2184C5.51261 13.3034 5.46089 13.3807 5.3957 13.4457L4.9225 13.9175C4.01185 14.8284 3.50022 16.0637 3.5001 17.3517V19.9501C3.5001 20.1358 3.42635 20.3138 3.29507 20.4451C3.1638 20.5764 2.98575 20.6501 2.8001 20.6501C2.61445 20.6501 2.4364 20.5764 2.30512 20.4451C2.17385 20.3138 2.1001 20.1358 2.1001 19.9501V17.3517C2.1003 15.6924 2.75948 14.1011 3.9327 12.9277L4.4045 12.4545C4.46952 12.3893 4.54677 12.3376 4.63181 12.3023C4.71685 12.267 4.80802 12.2489 4.9001 12.2489C4.99217 12.2489 5.08334 12.267 5.16838 12.3023C5.25343 12.3376 5.33067 12.3893 5.3957 12.4545ZM21.9045 12.0345C21.8393 12.0995 21.7876 12.1768 21.7523 12.2618C21.717 12.3469 21.6988 12.438 21.6988 12.5301C21.6988 12.6222 21.717 12.7134 21.7523 12.7984C21.7876 12.8834 21.8393 12.9607 21.9045 13.0257L22.3777 13.4975C22.8287 13.9485 23.1864 14.4839 23.4305 15.0731C23.6745 15.6624 23.8001 16.2939 23.8001 16.9317V19.9501C23.8001 20.1358 23.8738 20.3138 24.0051 20.4451C24.1364 20.5764 24.3144 20.6501 24.5001 20.6501C24.6857 20.6501 24.8638 20.5764 24.9951 20.4451C25.1263 20.3138 25.2001 20.1358 25.2001 19.9501V16.9317C25.1999 15.2724 24.5407 13.6811 23.3675 12.5077L22.8957 12.0345C22.8307 11.9693 22.7534 11.9176 22.6684 11.8823C22.5833 11.847 22.4922 11.8289 22.4001 11.8289C22.308 11.8289 22.2169 11.847 22.1318 11.8823C22.0468 11.9176 21.9695 11.9693 21.9045 12.0345Z" fill="black"/>
<path fill-rule="evenodd" clip-rule="evenodd" d="M19.6001 12.6001C18.8575 12.6001 18.1453 12.3051 17.6202 11.78C17.0951 11.2549 16.8001 10.5427 16.8001 9.8001C16.8001 9.05749 17.0951 8.3453 17.6202 7.8202C18.1453 7.2951 18.8575 7.0001 19.6001 7.0001C20.3428 7.0001 21.0549 7.2951 21.58 7.8202C22.1051 8.3453 22.4001 9.05749 22.4001 9.8001C22.4001 10.5427 22.1051 11.2549 21.58 11.78C21.0549 12.3051 20.3428 12.6001 19.6001 12.6001ZM19.6001 14.0001C19.0486 14.0001 18.5024 13.8915 17.9929 13.6804C17.4833 13.4693 17.0203 13.16 16.6303 12.7699C16.2403 12.3799 15.9309 11.9169 15.7199 11.4074C15.5088 10.8978 15.4001 10.3516 15.4001 9.8001C15.4001 9.24855 15.5088 8.70239 15.7199 8.19283C15.9309 7.68326 16.2403 7.22026 16.6303 6.83025C17.0203 6.44024 17.4833 6.13087 17.9929 5.9198C18.5024 5.70873 19.0486 5.6001 19.6001 5.6001C20.7141 5.6001 21.7823 6.0426 22.57 6.83025C23.3576 7.6179 23.8001 8.68619 23.8001 9.8001C23.8001 10.914 23.3576 11.9823 22.57 12.7699C21.7823 13.5576 20.7141 14.0001 19.6001 14.0001ZM13.3001 18.5501C12.3719 18.5501 11.4817 18.9188 10.8253 19.5752C10.1689 20.2316 9.80015 21.1218 9.80015 22.0501V23.8701C9.80015 24.0557 9.7264 24.2338 9.59512 24.3651C9.46385 24.4963 9.2858 24.5701 9.10015 24.5701C8.91449 24.5701 8.73645 24.4963 8.60517 24.3651C8.4739 24.2338 8.40015 24.0557 8.40015 23.8701V22.0501C8.40015 20.7505 8.9164 19.5042 9.83532 18.5853C10.7543 17.6663 12.0006 17.1501 13.3001 17.1501C14.5997 17.1501 15.846 17.6663 16.765 18.5853C17.6839 19.5042 18.2001 20.7505 18.2001 22.0501V23.8701C18.2001 24.0557 18.1264 24.2338 17.9951 24.3651C17.8638 24.4963 17.6858 24.5701 17.5001 24.5701C17.3145 24.5701 17.1364 24.4963 17.0052 24.3651C16.8739 24.2338 16.8001 24.0557 16.8001 23.8701V22.0501C16.8001 21.5905 16.7096 21.1353 16.5337 20.7107C16.3578 20.2861 16.1 19.9002 15.775 19.5752C15.45 19.2502 15.0642 18.9924 14.6395 18.8165C14.2149 18.6406 13.7598 18.5501 13.3001 18.5501Z" fill="black"/>
<path fill-rule="evenodd" clip-rule="evenodd" d="M13.3001 16.4502C14.0427 16.4502 14.7549 16.1552 15.28 15.6301C15.8051 15.105 16.1001 14.3928 16.1001 13.6502C16.1001 12.9076 15.8051 12.1954 15.28 11.6703C14.7549 11.1452 14.0427 10.8502 13.3001 10.8502C12.5575 10.8502 11.8453 11.1452 11.3202 11.6703C10.7951 12.1954 10.5001 12.9076 10.5001 13.6502C10.5001 14.3928 10.7951 15.105 11.3202 15.6301C11.8453 16.1552 12.5575 16.4502 13.3001 16.4502ZM13.3001 17.8502C14.414 17.8502 15.4823 17.4077 16.2699 16.62C17.0576 15.8324 17.5001 14.7641 17.5001 13.6502C17.5001 12.5363 17.0576 11.468 16.2699 10.6803C15.4823 9.89269 14.414 9.4502 13.3001 9.4502C12.1862 9.4502 11.1179 9.89269 10.3302 10.6803C9.5426 11.468 9.1001 12.5363 9.1001 13.6502C9.1001 14.7641 9.5426 15.8324 10.3302 16.62C11.1179 17.4077 12.1862 17.8502 13.3001 17.8502Z" fill="black"/>
</g>
</svg>
