<svg width="28" height="28" viewBox="0 0 28 28" fill="none" xmlns="http://www.w3.org/2000/svg">
<g opacity="0.6" clip-path="url(#clip0_124_5448)">
<path d="M25.7329 14.014C25.802 13.2952 25.8549 12.3673 25.8549 11.2026C25.8554 7.47775 23.7379 0.875 14 0.875C4.26213 0.875 2.14462 7.47775 2.14462 11.2026C2.14462 12.3673 2.19756 13.2952 2.26581 14.014C1.34925 14.4506 0.875 15.4481 0.875 16.4351C0.875 17.1448 1.10644 17.8115 1.526 18.3111C1.92587 18.788 2.46356 19.0794 3.09575 19.1656C3.40856 24.2961 9.65081 27.125 14 27.125C18.3483 27.125 24.5914 24.2961 24.9034 19.166C25.5364 19.0798 26.0741 18.7884 26.474 18.312C26.8944 17.8115 27.125 17.1448 27.125 16.4351C27.125 15.4481 26.6508 14.4506 25.7329 14.014ZM25.8304 17.7524C25.5115 18.1322 25.0495 18.3326 24.4921 18.3326H24.0682V18.7626C24.0682 23.4102 18.2039 26.264 13.9996 26.264C9.79475 26.264 3.93006 23.4106 3.93006 18.7626V18.3326H3.50787C2.95181 18.3326 2.4885 18.1322 2.17044 17.7524C1.88519 17.4138 1.722 16.933 1.722 16.4351C1.722 15.5444 2.21944 14.6453 3.33025 14.6453H3.6645L3.74237 14.3146C3.75594 14.2555 4.08319 12.8345 4.26212 9.83413C4.31506 8.93813 4.70969 8.6205 5.76756 8.6205C6.51 8.6205 7.47644 8.79112 8.59513 8.98844C10.1111 9.25663 11.9998 9.59 14 9.59C16.0011 9.59 17.8898 9.25663 19.4062 8.98887C20.524 8.79112 21.4904 8.62094 22.2329 8.62094C23.2908 8.62094 23.6845 8.93856 23.7383 9.83456C23.9177 12.8341 24.2432 14.2555 24.2581 14.3141L24.3351 14.6458H24.6702C25.781 14.6458 26.2784 15.5448 26.2784 16.4356C26.278 16.933 26.1148 17.4138 25.8304 17.7524Z" fill="black"/>
<path d="M19.4679 13.125C18.2586 13.125 17.2812 14.1037 17.2812 15.3125C17.2812 16.5213 18.2586 17.5 19.4679 17.5C20.048 17.5 20.6044 17.2695 21.0147 16.8593C21.4249 16.4491 21.6554 15.8927 21.6554 15.3125C21.6554 14.7323 21.4249 14.1759 21.0147 13.7657C20.6044 13.3555 20.048 13.125 19.4679 13.125Z" fill="black"/>
<path d="M8.53125 17.5C9.73937 17.5 10.7188 16.5206 10.7188 15.3125C10.7188 14.1044 9.73937 13.125 8.53125 13.125C7.32313 13.125 6.34375 14.1044 6.34375 15.3125C6.34375 16.5206 7.32313 17.5 8.53125 17.5Z" fill="black"/>
<path d="M17.5393 20.8369C15.2578 22.4119 12.7277 22.4023 10.4606 20.8369C10.188 20.6479 9.94169 20.9743 10.1263 21.277C10.8171 22.4023 12.2123 23.4063 13.9999 23.4063C15.7867 23.4063 17.1828 22.4023 17.8727 21.277C18.0586 20.9743 17.8128 20.6479 17.5393 20.8369Z" fill="black"/>
</g>
<defs>
<clipPath id="clip0_124_5448">
<rect width="28" height="28" fill="white"/>
</clipPath>
</defs>
</svg>
