<svg width="24" height="24" viewBox="0 0 24 24" fill="none" xmlns="http://www.w3.org/2000/svg">
<g clip-path="url(#clip0_2_56)">
<path d="M15.3333 17.3333C15.3333 17.5101 15.2631 17.6797 15.1381 17.8047C15.0131 17.9297 14.8435 18 14.6667 18H5.33334C5.18667 18 5.04667 18.1333 4.92667 18.22L2.66667 20V9.33331C2.66667 9.1565 2.73691 8.98693 2.86193 8.86191C2.98696 8.73688 3.15652 8.66665 3.33334 8.66665H5.90667V7.33331H3.33334C2.8029 7.33331 2.2942 7.54403 1.91912 7.9191C1.54405 8.29417 1.33334 8.80288 1.33334 9.33331V21.3333C1.33433 21.4571 1.36978 21.5782 1.43572 21.683C1.50166 21.7878 1.59548 21.8722 1.70667 21.9266C1.81379 21.9754 1.93189 21.9949 2.04899 21.9831C2.16608 21.9714 2.27798 21.9289 2.37334 21.86L5.80667 19.3333H14.7667C15.0193 19.3408 15.2709 19.2963 15.5056 19.2026C15.7404 19.1089 15.9535 18.968 16.1316 18.7887C16.3097 18.6093 16.4491 18.3953 16.5411 18.1598C16.6332 17.9244 16.6759 17.6726 16.6667 17.42V16.6666H15.3333V17.3333Z" fill="black"/>
<path d="M20.6667 2.66669H9.33333C8.8029 2.66669 8.29419 2.8774 7.91912 3.25247C7.54405 3.62755 7.33333 4.13625 7.33333 4.66669V12.6667C7.33333 13.1971 7.54405 13.7058 7.91912 14.0809C8.29419 14.456 8.8029 14.6667 9.33333 14.6667H18.3667L21.5533 17.14C21.6481 17.2101 21.7597 17.2537 21.8768 17.2666C21.9939 17.2795 22.1123 17.2611 22.22 17.2134C22.3334 17.1593 22.4293 17.0743 22.4965 16.9682C22.5638 16.862 22.5996 16.739 22.6 16.6134V4.66669C22.6003 4.14761 22.3987 3.64875 22.038 3.27553C21.6772 2.90232 21.1855 2.68399 20.6667 2.66669ZM21.3333 15.2934L19 13.4734C18.8836 13.383 18.7406 13.3338 18.5933 13.3334H9.33333C9.15652 13.3334 8.98695 13.2631 8.86193 13.1381C8.7369 13.0131 8.66667 12.8435 8.66667 12.6667V4.66669C8.66667 4.48988 8.7369 4.32031 8.86193 4.19528C8.98695 4.07026 9.15652 4.00002 9.33333 4.00002H20.6667C20.8449 4.01619 21.011 4.09697 21.1338 4.22712C21.2566 4.35728 21.3276 4.52784 21.3333 4.70669V15.2934Z" fill="black"/>
</g>
<defs>
<clipPath id="clip0_2_56">
<rect width="24" height="24" fill="white"/>
</clipPath>
</defs>
</svg>
