<svg width="24" height="24" viewBox="0 0 24 24" fill="none" xmlns="http://www.w3.org/2000/svg">
<g clip-path="url(#clip0_2_731)">
<path d="M15.3334 17.3333C15.3334 17.5101 15.2631 17.6797 15.1381 17.8047C15.0131 17.9298 14.8435 18 14.6667 18H5.33337C5.18671 18 5.04671 18.1333 4.92671 18.22L2.66671 20V9.33333C2.66671 9.15652 2.73695 8.98695 2.86197 8.86192C2.98699 8.7369 3.15656 8.66666 3.33337 8.66666H5.90671V7.33333H3.33337C2.80294 7.33333 2.29423 7.54404 1.91916 7.91911C1.54409 8.29419 1.33337 8.8029 1.33337 9.33333V21.3333C1.33437 21.4571 1.36982 21.5782 1.43576 21.683C1.5017 21.7878 1.59552 21.8722 1.70671 21.9267C1.81383 21.9754 1.93193 21.9949 2.04902 21.9832C2.16612 21.9715 2.27802 21.929 2.37337 21.86L5.80671 19.3333H14.7667C15.0194 19.3408 15.2709 19.2963 15.5057 19.2026C15.7405 19.1089 15.9535 18.9681 16.1316 18.7887C16.3097 18.6093 16.4491 18.3953 16.5412 18.1599C16.6332 17.9244 16.6759 17.6726 16.6667 17.42V16.6667H15.3334V17.3333Z" fill="#2F2F2F"/>
<path d="M20.6667 2.66667H9.33337C8.80294 2.66667 8.29423 2.87739 7.91916 3.25246C7.54409 3.62753 7.33337 4.13624 7.33337 4.66667V12.6667C7.33337 13.1971 7.54409 13.7058 7.91916 14.0809C8.29423 14.456 8.80294 14.6667 9.33337 14.6667H18.3667L21.5534 17.14C21.6481 17.21 21.7597 17.2537 21.8768 17.2666C21.9939 17.2795 22.1123 17.2611 22.22 17.2133C22.3335 17.1593 22.4294 17.0743 22.4966 16.9682C22.5638 16.862 22.5997 16.739 22.6 16.6133V4.66667C22.6003 4.14759 22.3988 3.64873 22.038 3.27552C21.6772 2.9023 21.1855 2.68397 20.6667 2.66667ZM21.3334 15.2933L19 13.4733C18.8837 13.383 18.7407 13.3338 18.5934 13.3333H9.33337C9.15656 13.3333 8.98699 13.2631 8.86197 13.1381C8.73695 13.0131 8.66671 12.8435 8.66671 12.6667V4.66667C8.66671 4.48986 8.73695 4.32029 8.86197 4.19527C8.98699 4.07024 9.15656 4.00001 9.33337 4.00001H20.6667C20.8449 4.01618 21.0111 4.09695 21.1338 4.22711C21.2566 4.35727 21.3276 4.52783 21.3334 4.70667V15.2933Z" fill="black"/>
</g>
<defs>
<clipPath id="clip0_2_731">
<rect width="24" height="24" fill="white"/>
</clipPath>
</defs>
</svg>
