<svg width="26" height="26" viewBox="0 0 26 26" fill="none" xmlns="http://www.w3.org/2000/svg">
<path d="M16.3489 19.7533C16.4176 18.9133 17.0596 16.8837 18.5596 14.7143C19.3965 13.504 19.7183 12.0109 19.4542 10.5633C19.1902 9.11578 18.3619 7.83241 17.1517 6.99555C15.9414 6.15869 14.4483 5.83689 13.0007 6.10093C11.5532 6.36498 10.2698 7.19324 9.43295 8.40351C7.9329 10.5729 6.26001 11.8897 5.50045 12.2476C5.36085 12.3128 5.24094 12.4138 5.15283 12.5402C5.06471 12.6667 5.01151 12.8141 4.99859 12.9677C4.98568 13.1212 5.0135 13.2755 5.07925 13.4149C5.14501 13.5542 5.24637 13.6738 5.3731 13.7615L8.02884 15.5978C7.72392 16.1669 7.63917 16.8284 7.79074 17.4559C7.94231 18.0835 8.3196 18.6334 8.85065 19.0006C9.38169 19.3678 10.0293 19.5266 10.67 19.4469C11.3107 19.3671 11.8996 19.0543 12.3244 18.568L14.9801 20.4044C15.1067 20.4913 15.2539 20.5433 15.4069 20.5554C15.5599 20.5675 15.7135 20.5391 15.8521 20.4732C15.9907 20.4072 16.1096 20.306 16.1968 20.1797C16.284 20.0534 16.3364 19.9063 16.3489 19.7533ZM9.18018 18.524C8.77596 18.2444 8.486 17.8286 8.36343 17.3526C8.24087 16.8767 8.29389 16.3725 8.5128 15.9325L11.8404 18.2334C11.506 18.5936 11.053 18.8212 10.5645 18.8746C10.0759 18.9279 9.58446 18.8035 9.18018 18.524ZM15.6025 19.9472C15.5566 19.9697 15.5055 19.9794 15.4546 19.9754C15.4036 19.9714 15.3547 19.9538 15.3129 19.9245L5.70525 13.2811C5.66301 13.2524 5.62927 13.2128 5.60754 13.1666C5.58582 13.1203 5.5769 13.0691 5.58173 13.0182C5.5859 12.9671 5.60344 12.918 5.63259 12.8759C5.66174 12.8337 5.70148 12.8 5.7478 12.778C6.72721 12.3166 8.44688 10.8564 9.9133 8.73566C10.6621 7.65278 11.8103 6.91171 13.1055 6.67546C14.4007 6.43921 15.7366 6.72714 16.8195 7.47591C17.9024 8.22467 18.6435 9.37295 18.8797 10.6681C19.116 11.9633 18.828 13.2993 18.0793 14.3821C16.6133 16.5023 15.8539 18.6273 15.7679 19.7066C15.7639 19.7577 15.7465 19.8068 15.7174 19.8491C15.6884 19.8913 15.6487 19.9251 15.6025 19.9472Z" fill="#2F2F2F"/>
</svg>
