<svg width="11" height="11" viewBox="0 0 11 11" fill="none" xmlns="http://www.w3.org/2000/svg">
<path d="M5.5 1.11719C4.63316 1.11719 3.78579 1.37423 3.06504 1.85582C2.34429 2.33741 1.78254 3.02192 1.45081 3.82277C1.11909 4.62362 1.03229 5.50486 1.2014 6.35504C1.37052 7.20523 1.78794 7.98617 2.40089 8.59912C3.01383 9.21206 3.79478 9.62949 4.64496 9.7986C5.49514 9.96771 6.37638 9.88092 7.17723 9.54919C7.97809 9.21747 8.66259 8.65571 9.14418 7.93496C9.62577 7.21421 9.88281 6.36684 9.88281 5.5C9.88145 4.33802 9.41925 3.22403 8.59761 2.40239C7.77597 1.58075 6.66198 1.11855 5.5 1.11719ZM8.83738 7.45164H7.29996L6.84965 6.83203L7.4207 5.16828L8.15117 4.93152L9.35172 5.85234C9.3004 6.41687 9.12475 6.96303 8.83738 7.45164ZM3.70004 7.45164H2.16262C1.87555 6.96296 1.7002 6.4168 1.64914 5.85234L2.84969 4.93152L3.58016 5.16828L4.15035 6.83203L3.70004 7.45164ZM2.19141 3.49852L2.5025 4.54738L1.64313 5.20652C1.68864 4.60192 1.87652 4.01665 2.19141 3.49852ZM4.62172 6.61719L4.08848 5.0643L5.5 4.09406L6.91153 5.0643L6.37828 6.61719H4.62172ZM8.49707 4.54738L8.8086 3.49852C9.12334 4.01669 9.31106 4.60195 9.35645 5.20652L8.49707 4.54738ZM8.42574 2.97387L7.99219 4.44082L7.26172 4.67844L5.75781 3.64719V2.88578L7.08555 1.97312C7.59972 2.20531 8.05708 2.54682 8.42574 2.97387ZM6.48485 1.76172L5.5 2.43719L4.51516 1.76172C5.16077 1.59214 5.83923 1.59214 6.48485 1.76172ZM3.91488 1.9727L5.24219 2.88578V3.64547L3.73828 4.67672L3.00781 4.4391L2.57426 2.97387C2.9431 2.54672 3.40059 2.20507 3.91488 1.9727ZM2.52442 7.96727H3.64934L4.04422 9.08445C3.4535 8.84263 2.9315 8.45891 2.52442 7.96727ZM4.6591 9.2748L4.11985 7.75113L4.5693 7.13281H6.43071L6.88016 7.75113L6.3409 9.2748C5.78707 9.39798 5.21294 9.39798 4.6591 9.2748ZM6.95578 9.0823L7.35067 7.96512H8.47559C8.06851 8.45677 7.54651 8.84048 6.95578 9.0823Z" fill="#9B03D0"/>
</svg>
