<svg width="14" height="11" viewBox="0 0 14 11" fill="none" xmlns="http://www.w3.org/2000/svg">
<path d="M1.07667 9.33333C0.77 9.33333 0.514 9.23067 0.308667 9.02533C0.102889 8.81956 0 8.56333 0 8.25667V1.07667C0 0.77 0.102889 0.514 0.308667 0.308667C0.514 0.102889 0.77 0 1.07667 0H10.9233C11.23 0 11.486 0.102889 11.6913 0.308667C11.8971 0.514 12 0.77 12 1.07667V4.128H0.666667V8.25667C0.666667 8.35889 0.709333 8.45289 0.794667 8.53867C0.880444 8.624 0.974444 8.66667 1.07667 8.66667H6.79467V9.33333H1.07667ZM0.666667 2.53867H11.3333V1.07667C11.3333 0.974444 11.2907 0.880444 11.2053 0.794667C11.1196 0.709333 11.0256 0.666667 10.9233 0.666667H1.07667C0.974444 0.666667 0.880444 0.709333 0.794667 0.794667C0.709333 0.880444 0.666667 0.974444 0.666667 1.07667V2.53867ZM11 11V9H9V8.33333H11V6.33333H11.6667V8.33333H13.6667V9H11.6667V11H11Z" fill="white"/>
</svg>
