<svg width="13" height="13" viewBox="0 0 13 13" fill="none" xmlns="http://www.w3.org/2000/svg">
<g clip-path="url(#clip0_17_1477)">
<path d="M8.9375 0.8125C9.15299 0.8125 9.35965 0.898102 9.51202 1.05048C9.6644 1.20285 9.75 1.40951 9.75 1.625V11.375C9.75 11.5905 9.6644 11.7972 9.51202 11.9495C9.35965 12.1019 9.15299 12.1875 8.9375 12.1875H4.0625C3.84701 12.1875 3.64035 12.1019 3.48798 11.9495C3.3356 11.7972 3.25 11.5905 3.25 11.375V1.625C3.25 1.40951 3.3356 1.20285 3.48798 1.05048C3.64035 0.898102 3.84701 0.8125 4.0625 0.8125H8.9375ZM4.0625 0C3.63152 0 3.2182 0.171205 2.91345 0.475951C2.6087 0.780698 2.4375 1.19402 2.4375 1.625V11.375C2.4375 11.806 2.6087 12.2193 2.91345 12.524C3.2182 12.8288 3.63152 13 4.0625 13H8.9375C9.36848 13 9.7818 12.8288 10.0865 12.524C10.3913 12.2193 10.5625 11.806 10.5625 11.375V1.625C10.5625 1.19402 10.3913 0.780698 10.0865 0.475951C9.7818 0.171205 9.36848 0 8.9375 0L4.0625 0Z" fill="#9B03D0"/>
<path d="M6.5 11.375C6.71549 11.375 6.92215 11.2894 7.07452 11.137C7.2269 10.9847 7.3125 10.778 7.3125 10.5625C7.3125 10.347 7.2269 10.1403 7.07452 9.98798C6.92215 9.8356 6.71549 9.75 6.5 9.75C6.28451 9.75 6.07785 9.8356 5.92548 9.98798C5.7731 10.1403 5.6875 10.347 5.6875 10.5625C5.6875 10.778 5.7731 10.9847 5.92548 11.137C6.07785 11.2894 6.28451 11.375 6.5 11.375Z" fill="#9B03D0"/>
<path d="M6.29785 5.28139C6.34539 5.28138 6.39143 5.29804 6.42795 5.32847C6.46448 5.35891 6.48917 5.40119 6.49772 5.44795L6.50097 5.48452V7.51577C6.50107 7.56653 6.48215 7.61548 6.44796 7.65299C6.41376 7.6905 6.36676 7.71385 6.3162 7.71843C6.26565 7.72302 6.21521 7.70851 6.17482 7.67777C6.13443 7.64703 6.10702 7.60228 6.09797 7.55233L6.09472 7.51577V5.48452C6.09472 5.43064 6.11613 5.37898 6.15422 5.34088C6.19231 5.30279 6.24398 5.28139 6.29785 5.28139ZM5.07788 6.09389C5.12542 6.09388 5.17146 6.11054 5.20799 6.14097C5.24451 6.17141 5.2692 6.21369 5.27776 6.26045L5.28101 6.29702V7.51577C5.2811 7.56653 5.26218 7.61548 5.22799 7.65299C5.19379 7.6905 5.14679 7.71385 5.09623 7.71843C5.04568 7.72302 4.99525 7.70851 4.95486 7.67777C4.91447 7.64703 4.88705 7.60228 4.87801 7.55233L4.87476 7.51577V6.29702C4.87476 6.24314 4.89616 6.19148 4.93425 6.15338C4.97234 6.11529 5.02401 6.09389 5.07788 6.09389ZM7.51538 4.46808C7.56292 4.46806 7.60896 4.48472 7.64549 4.51516C7.68201 4.54559 7.7067 4.58788 7.71526 4.63464L7.71851 4.6712V7.51617C7.7186 7.56693 7.69968 7.61589 7.66549 7.6534C7.63129 7.69091 7.58429 7.71425 7.53373 7.71884C7.48318 7.72343 7.43275 7.70892 7.39236 7.67818C7.35197 7.64743 7.32455 7.60268 7.31551 7.55273L7.31226 7.51577V4.6712C7.31226 4.61733 7.33366 4.56567 7.37175 4.52757C7.40984 4.48948 7.46151 4.46808 7.51538 4.46808Z" fill="#9B03D0"/>
</g>
<defs>
<clipPath id="clip0_17_1477">
<rect width="13" height="13" fill="white"/>
</clipPath>
</defs>
</svg>
