<svg width="20" height="20" viewBox="0 0 20 20" fill="none" xmlns="http://www.w3.org/2000/svg">
<path fill-rule="evenodd" clip-rule="evenodd" d="M9.99996 11.25C10.884 11.25 11.7319 10.8988 12.357 10.2737C12.9821 9.64858 13.3333 8.80073 13.3333 7.91668C13.3333 7.03262 12.9821 6.18478 12.357 5.55965C11.7319 4.93453 10.884 4.58334 9.99996 4.58334C9.1159 4.58334 8.26806 4.93453 7.64294 5.55965C7.01782 6.18478 6.66663 7.03262 6.66663 7.91668C6.66663 8.80073 7.01782 9.64858 7.64294 10.2737C8.26806 10.8988 9.1159 11.25 9.99996 11.25ZM9.99996 10.4167C10.3283 10.4167 10.6534 10.352 10.9567 10.2264C11.26 10.1007 11.5356 9.91659 11.7677 9.68444C11.9999 9.4523 12.184 9.1767 12.3097 8.87339C12.4353 8.57007 12.5 8.24498 12.5 7.91668C12.5 7.58837 12.4353 7.26328 12.3097 6.95997C12.184 6.65665 11.9999 6.38106 11.7677 6.14891C11.5356 5.91676 11.26 5.73261 10.9567 5.60698C10.6534 5.48134 10.3283 5.41668 9.99996 5.41668C9.33692 5.41668 8.70103 5.68007 8.23219 6.14891C7.76335 6.61775 7.49996 7.25364 7.49996 7.91668C7.49996 8.57972 7.76335 9.2156 8.23219 9.68444C8.70103 10.1533 9.33692 10.4167 9.99996 10.4167Z" fill="#9B03D0"/>
<path fill-rule="evenodd" clip-rule="evenodd" d="M18.3333 10C18.3333 14.6025 14.6025 18.3333 9.99996 18.3333C5.39746 18.3333 1.66663 14.6025 1.66663 10C1.66663 5.39751 5.39746 1.66667 9.99996 1.66667C14.6025 1.66667 18.3333 5.39751 18.3333 10ZM14.0125 16.3375C12.8129 17.099 11.4208 17.5023 9.99996 17.5C8.54516 17.5023 7.1214 17.0794 5.90371 16.2833C5.80371 16.1583 5.70204 16.0292 5.59954 15.8958C5.48045 15.7396 5.41616 15.5485 5.41663 15.3521C5.41663 14.9033 5.73913 14.5271 6.17038 14.4642C9.02246 14.0475 10.9862 14.0833 13.842 14.4788C14.0489 14.5087 14.2378 14.6125 14.3741 14.771C14.5103 14.9295 14.5847 15.1319 14.5833 15.3408C14.5833 15.5408 14.5145 15.735 14.3904 15.8867C14.2625 16.0425 14.1362 16.1929 14.0125 16.3375ZM15.4104 15.1942C15.3437 14.4142 14.7516 13.7633 13.9562 13.6533C11.0329 13.2488 8.98954 13.21 6.04996 13.6396C5.24996 13.7563 4.66038 14.4129 4.59038 15.195C3.24676 13.7996 2.49731 11.9371 2.49996 10C2.49996 5.85792 5.85788 2.50001 9.99996 2.50001C14.142 2.50001 17.5 5.85792 17.5 10C17.5026 11.9367 16.7535 13.7989 15.4104 15.1942Z" fill="#9B03D0"/>
</svg>
