<svg width="16" height="16" viewBox="0 0 16 16" fill="none" xmlns="http://www.w3.org/2000/svg">
<g clip-path="url(#clip0_12_1338)">
<path d="M11 1C11.2652 1 11.5196 1.10536 11.7071 1.29289C11.8946 1.48043 12 1.73478 12 2V14C12 14.2652 11.8946 14.5196 11.7071 14.7071C11.5196 14.8946 11.2652 15 11 15H5C4.73478 15 4.48043 14.8946 4.29289 14.7071C4.10536 14.5196 4 14.2652 4 14V2C4 1.73478 4.10536 1.48043 4.29289 1.29289C4.48043 1.10536 4.73478 1 5 1H11ZM5 0C4.46957 0 3.96086 0.210714 3.58579 0.585786C3.21071 0.960859 3 1.46957 3 2V14C3 14.5304 3.21071 15.0391 3.58579 15.4142C3.96086 15.7893 4.46957 16 5 16H11C11.5304 16 12.0391 15.7893 12.4142 15.4142C12.7893 15.0391 13 14.5304 13 14V2C13 1.46957 12.7893 0.960859 12.4142 0.585786C12.0391 0.210714 11.5304 0 11 0L5 0Z" fill="#9B03D0"/>
<path d="M8 14C8.26522 14 8.51957 13.8946 8.70711 13.7071C8.89464 13.5196 9 13.2652 9 13C9 12.7348 8.89464 12.4804 8.70711 12.2929C8.51957 12.1054 8.26522 12 8 12C7.73478 12 7.48043 12.1054 7.29289 12.2929C7.10536 12.4804 7 12.7348 7 13C7 13.2652 7.10536 13.5196 7.29289 13.7071C7.48043 13.8946 7.73478 14 8 14Z" fill="#9B03D0"/>
<path d="M7.75138 6.50018C7.80989 6.50016 7.86656 6.52066 7.91151 6.55812C7.95646 6.59558 7.98685 6.64762 7.99738 6.70518L8.00138 6.75018V9.25018C8.00149 9.31265 7.97821 9.3729 7.93612 9.41907C7.89403 9.46523 7.83618 9.49397 7.77397 9.49961C7.71175 9.50526 7.64967 9.4874 7.59996 9.44957C7.55025 9.41173 7.51651 9.35665 7.50538 9.29518L7.50138 9.25018V6.75018C7.50138 6.68387 7.52772 6.62028 7.5746 6.5734C7.62149 6.52652 7.68507 6.50018 7.75138 6.50018ZM6.24988 7.50018C6.30839 7.50016 6.36506 7.52066 6.41001 7.55812C6.45496 7.59558 6.48535 7.64762 6.49588 7.70518L6.49988 7.75018V9.25018C6.49999 9.31265 6.47671 9.3729 6.43462 9.41907C6.39253 9.46523 6.33468 9.49397 6.27247 9.49961C6.21025 9.50526 6.14817 9.4874 6.09846 9.44957C6.04875 9.41173 6.01501 9.35665 6.00388 9.29518L5.99988 9.25018V7.75018C5.99988 7.68387 6.02622 7.62028 6.0731 7.5734C6.11999 7.52652 6.18357 7.50018 6.24988 7.50018ZM9.24988 5.49918C9.30839 5.49916 9.36506 5.51966 9.41001 5.55712C9.45496 5.59458 9.48535 5.64662 9.49588 5.70418L9.49988 5.74918V9.25068C9.49999 9.31315 9.47671 9.3734 9.43462 9.41957C9.39253 9.46573 9.33468 9.49447 9.27247 9.50011C9.21025 9.50576 9.14817 9.4879 9.09846 9.45007C9.04875 9.41223 9.01501 9.35715 9.00388 9.29568L8.99988 9.25018V5.74918C8.99988 5.68287 9.02622 5.61928 9.0731 5.5724C9.11999 5.52552 9.18357 5.49918 9.24988 5.49918Z" fill="black"/>
</g>
<defs>
<clipPath id="clip0_12_1338">
<rect width="16" height="16" fill="white"/>
</clipPath>
</defs>
</svg>
