<svg width="20" height="20" viewBox="0 0 20 20" fill="none" xmlns="http://www.w3.org/2000/svg">
<path d="M15.775 16.6667C14.3706 16.6667 12.9306 16.315 11.455 15.6117C9.97949 14.9078 8.60893 13.9203 7.34337 12.6492C6.07671 11.3775 5.09171 10.0067 4.38837 8.53667C3.68504 7.06667 3.33337 5.62945 3.33337 4.225C3.33337 3.97056 3.41671 3.75861 3.58337 3.58917C3.75004 3.41861 3.95837 3.33334 4.20837 3.33334H6.26921C6.49587 3.33334 6.69365 3.40472 6.86254 3.5475C7.03143 3.69028 7.1456 3.87306 7.20504 4.09584L7.61837 6.08334C7.65726 6.31667 7.65032 6.52028 7.59754 6.69417C7.54532 6.86806 7.4531 7.01056 7.32087 7.12167L5.49171 8.82667C5.83393 9.44778 6.21199 10.0244 6.62587 10.5567C7.03976 11.0894 7.48143 11.5942 7.95087 12.0708C8.43421 12.5542 8.95476 13.0042 9.51254 13.4208C10.0703 13.8369 10.6825 14.2297 11.3492 14.5992L13.1317 12.785C13.2673 12.6389 13.4198 12.5425 13.5892 12.4958C13.7587 12.4497 13.9459 12.4406 14.1509 12.4683L15.9042 12.8267C16.1303 12.8822 16.3139 12.9961 16.455 13.1683C16.5962 13.3411 16.6667 13.5392 16.6667 13.7625V15.7917C16.6667 16.0417 16.5817 16.25 16.4117 16.4167C16.2423 16.5833 16.0295 16.6667 15.775 16.6667ZM5.10004 8.045L6.70004 6.57334C6.75337 6.53111 6.78782 6.4725 6.80337 6.3975C6.82004 6.3225 6.81726 6.25306 6.79504 6.18917L6.42587 4.4225C6.40421 4.3375 6.36671 4.27361 6.31337 4.23084C6.26004 4.18806 6.19087 4.16667 6.10587 4.16667H4.39587C4.33199 4.16667 4.27865 4.18806 4.23587 4.23084C4.1931 4.27361 4.17171 4.32695 4.17171 4.39084C4.18782 4.96028 4.27671 5.55472 4.43837 6.17417C4.60115 6.79417 4.82115 7.41778 5.10004 8.045ZM12.1425 14.99C12.7059 15.2689 13.3059 15.4753 13.9425 15.6092C14.5803 15.7425 15.1359 15.8139 15.6092 15.8233C15.6731 15.8233 15.7264 15.8022 15.7692 15.76C15.812 15.7172 15.8334 15.6636 15.8334 15.5992V13.9267C15.8334 13.8411 15.812 13.7717 15.7692 13.7183C15.7264 13.6644 15.6625 13.6269 15.5775 13.6058L14.0359 13.29C13.9714 13.2689 13.915 13.2661 13.8667 13.2817C13.8189 13.2983 13.7684 13.3331 13.715 13.3858L12.1425 14.99Z" fill="#9B03D0"/>
</svg>
