<svg width="35" height="35" viewBox="0 0 35 35" fill="none" xmlns="http://www.w3.org/2000/svg">
<path d="M25.9737 6.51875C25.8571 6.51875 25.7404 6.48958 25.6383 6.43125C22.8383 4.9875 20.4175 4.375 17.5008 4.375C14.6279 4.375 11.8862 5.06042 9.39248 6.43125C9.04248 6.62083 8.60498 6.48958 8.40082 6.13958C8.30986 5.96903 8.28946 5.76959 8.344 5.58415C8.39855 5.39871 8.52367 5.24207 8.69248 5.14792C11.405 3.64583 14.38 2.91667 17.5008 2.91667C20.6216 2.91667 23.3341 3.60208 26.3091 5.10417C26.6737 5.32292 26.805 5.76042 26.6154 6.11042C26.5592 6.23308 26.4687 6.33689 26.3549 6.40933C26.241 6.48178 26.1087 6.51977 25.9737 6.51875ZM5.10498 14.175C4.95915 14.175 4.81331 14.1312 4.68206 14.0437C4.52803 13.9281 4.42408 13.758 4.39154 13.5681C4.359 13.3783 4.40033 13.1832 4.50706 13.0229C5.95081 10.9813 7.78831 9.37708 9.97581 8.25417C14.5841 5.89167 20.4175 5.87708 25.0112 8.23958C27.1987 9.3625 29.0362 10.9375 30.48 12.9792C30.7133 13.3 30.6258 13.7667 30.305 14C29.9696 14.2333 29.5175 14.1604 29.2841 13.8542C28.0164 12.0305 26.3183 10.5478 24.3404 9.5375C20.155 7.39375 14.8029 7.39375 10.6321 9.55208C8.64873 10.5729 6.98623 12.0312 5.67373 13.8542C5.55706 14.0729 5.33831 14.175 5.10498 14.175ZM14.2196 31.7771C14.03 31.7771 13.855 31.7042 13.7091 31.5583C12.4404 30.2896 11.755 29.4729 10.7779 27.7083C9.77165 25.9146 9.24665 23.7271 9.24665 21.3792C9.24665 17.0479 12.9508 13.5188 17.5008 13.5188C22.0508 13.5188 25.755 17.0479 25.755 21.3792C25.755 21.5726 25.6782 21.758 25.5414 21.8948C25.4047 22.0315 25.2192 22.1083 25.0258 22.1083C24.8324 22.1083 24.647 22.0315 24.5102 21.8948C24.3735 21.758 24.2966 21.5726 24.2966 21.3792C24.2966 17.85 21.2487 14.9771 17.5008 14.9771C13.7529 14.9771 10.705 17.85 10.705 21.3792C10.705 23.4792 11.1716 25.4187 12.0612 26.9792C12.9946 28.6708 13.6362 29.3854 14.7591 30.5229C15.0362 30.8146 15.0362 31.2667 14.7591 31.5583C14.5841 31.7042 14.4091 31.7771 14.2196 31.7771ZM24.6758 29.0792C22.9404 29.0792 21.4091 28.6417 20.155 27.7812C17.9821 26.3083 16.6841 23.9167 16.6841 21.3792C16.6841 21.1858 16.761 21.0003 16.8977 20.8636C17.0345 20.7268 17.2199 20.65 17.4133 20.65C17.6067 20.65 17.7922 20.7268 17.9289 20.8636C18.0657 21.0003 18.1425 21.1858 18.1425 21.3792C18.1425 23.4354 19.1925 25.375 20.9716 26.5708C22.0071 27.2708 23.2175 27.6062 24.6758 27.6062C25.0258 27.6062 25.6091 27.5625 26.1925 27.4604C26.5862 27.3875 26.98 27.65 27.0383 28.0583C27.1112 28.4375 26.8487 28.8312 26.4404 28.9042C25.6091 29.0646 24.88 29.0792 24.6758 29.0792ZM21.7446 32.0833H21.555C19.2362 31.4125 17.7196 30.5521 16.13 28.9917C15.1216 27.9979 14.3221 26.8125 13.7786 25.5051C13.2351 24.1978 12.9586 22.795 12.9654 21.3792C12.9654 19.0167 14.9779 17.0917 17.4571 17.0917C19.9362 17.0917 21.9487 19.0167 21.9487 21.3792C21.9487 22.9396 23.3341 24.2083 24.9821 24.2083C26.6591 24.2083 28.0154 22.9396 28.0154 21.3792C28.0154 15.8812 23.2758 11.4187 17.4425 11.4187C13.3008 11.4187 9.47998 13.7229 7.8029 17.2958C7.23415 18.4771 6.94248 19.8625 6.94248 21.3792C6.94248 22.5167 7.04456 24.3104 7.91956 26.6438C8.0654 27.0229 7.87581 27.4458 7.49665 27.5771C7.31663 27.6419 7.11842 27.6341 6.94413 27.5551C6.76985 27.4761 6.63323 27.3323 6.56331 27.1542C5.83415 25.2438 5.49873 23.3333 5.49873 21.3792C5.49873 19.6292 5.83415 18.0396 6.4904 16.6542C8.42998 12.5854 12.7321 9.94583 17.4425 9.94583C24.0633 9.94583 29.4737 15.0646 29.4737 21.3646C29.4737 23.7271 27.4612 25.6521 24.9821 25.6521C22.5029 25.6521 20.4904 23.7271 20.4904 21.3646C20.4904 19.8042 19.1341 18.5354 17.4571 18.5354C15.78 18.5354 14.4237 19.8042 14.4237 21.3646C14.4237 23.8583 15.3862 26.1917 17.1508 27.9417C18.5362 29.3125 19.8633 30.0708 21.9196 30.625C22.3133 30.7417 22.5321 31.15 22.43 31.5292C22.3571 31.8646 22.0508 32.0833 21.7446 32.0833Z" fill="black"/>
</svg>
