<svg width="20" height="20" viewBox="0 0 20 20" fill="none" xmlns="http://www.w3.org/2000/svg">
<path d="M9.06249 16.0833L3.56249 10.5833C3.47916 10.5 3.41999 10.4097 3.38499 10.3125C3.34999 10.2153 3.33277 10.1111 3.33333 10C3.33333 9.8889 3.35083 9.78473 3.38583 9.68751C3.42083 9.59029 3.47971 9.50001 3.56249 9.41668L9.06249 3.91668C9.21527 3.7639 9.40638 3.68418 9.63583 3.67751C9.86527 3.67084 10.063 3.75057 10.2292 3.91668C10.3958 4.06945 10.4828 4.26057 10.49 4.49001C10.4972 4.71945 10.4172 4.91723 10.25 5.08334L6.16666 9.16668H15.4792C15.7153 9.16668 15.9133 9.24668 16.0733 9.40668C16.2333 9.56668 16.313 9.76445 16.3125 10C16.3125 10.2361 16.2328 10.4342 16.0733 10.5942C15.9139 10.7542 15.7158 10.8339 15.4792 10.8333H6.16666L10.25 14.9167C10.4028 15.0695 10.4828 15.2639 10.49 15.5C10.4972 15.7361 10.4172 15.9306 10.25 16.0833C10.0972 16.25 9.90277 16.3333 9.66666 16.3333C9.43055 16.3333 9.22916 16.25 9.06249 16.0833Z" fill="#2F2F2F"/>
</svg>
