<svg width="69" height="69" viewBox="0 0 69 69" fill="none" xmlns="http://www.w3.org/2000/svg">
<path d="M1.00485 51.2475L20.2059 32.0464C21.7762 30.4766 23.9058 29.5947 26.1262 29.5947C28.3466 29.5947 30.4761 30.4766 32.0464 32.0464L51.2475 51.2475M42.8737 42.8737L49.5141 36.2333C51.0845 34.6635 53.214 33.7816 55.4344 33.7816C57.6548 33.7816 59.7843 34.6635 61.3547 36.2333L67.9951 42.8737M42.8737 17.7524H42.9156M9.37863 67.9951H59.6213C61.8421 67.9951 63.9721 67.1128 65.5424 65.5424C67.1128 63.9721 67.9951 61.8421 67.9951 59.6213V9.37863C67.9951 7.15777 67.1128 5.02786 65.5424 3.45748C63.9721 1.88709 61.8421 1.00485 59.6213 1.00485H9.37863C7.15777 1.00485 5.02786 1.88709 3.45748 3.45748C1.88709 5.02786 1.00485 7.15777 1.00485 9.37863V59.6213C1.00485 61.8421 1.88709 63.9721 3.45748 65.5424C5.02786 67.1128 7.15777 67.9951 9.37863 67.9951Z" stroke="black" stroke-width="2" stroke-linecap="round" stroke-linejoin="round"/>
</svg>
