<svg width="11" height="11" viewBox="0 0 11 11" fill="none" xmlns="http://www.w3.org/2000/svg">
<path d="M5.72908 2.75L4.35408 4.8125H5.27075V6.1875L6.64575 4.125H5.72908V2.75Z" fill="#9B03D0"/>
<path fill-rule="evenodd" clip-rule="evenodd" d="M8.68767 4.41672C8.61813 5.00691 8.38089 5.5648 8.00407 6.02433C7.78361 6.29383 7.2233 7.06291 7.10413 7.5625H3.8958C3.77663 7.06245 3.21563 6.29314 2.99517 6.02364C2.61853 5.5639 2.38153 5.00585 2.31226 4.41558C2.24396 3.82656 2.34675 3.23034 2.60834 2.6982C2.87239 2.16201 3.28284 1.71151 3.79222 1.39883C4.30601 1.08309 4.89737 0.916172 5.50042 0.916662C6.10497 0.916662 6.69713 1.08395 7.20863 1.39952C7.71788 1.71232 8.12817 2.16289 8.39205 2.69912C8.65353 3.23137 8.75616 3.82768 8.68767 4.41672ZM6.7794 7.10416H4.2203C4.12267 6.87889 3.99228 6.65316 3.87082 6.46135C3.711 6.20928 3.53717 5.96636 3.35015 5.73375C3.02891 5.34179 2.82675 4.86596 2.76761 4.36264C2.7094 3.86103 2.79691 3.35327 3.01969 2.9001C3.24568 2.44157 3.59686 2.05638 4.03261 1.7891C4.47412 1.51787 4.98226 1.37452 5.50042 1.375C6.02063 1.375 6.52938 1.51914 6.96824 1.78979C7.40383 2.05712 7.75485 2.44231 7.98069 2.90079C8.20336 3.35408 8.29072 3.86192 8.23232 4.36356C8.17297 4.86677 7.97065 5.34243 7.64932 5.7342C7.46221 5.9667 7.28845 6.20962 7.12888 6.46181C7.00742 6.65362 6.87703 6.87889 6.7794 7.10416Z" fill="#9B03D0"/>
<path d="M3.89579 8.24999C3.89579 8.18921 3.91994 8.13092 3.96291 8.08794C4.00589 8.04497 4.06418 8.02082 4.12496 8.02082H6.87496C6.93574 8.02082 6.99403 8.04497 7.037 8.08794C7.07998 8.13092 7.10412 8.18921 7.10412 8.24999C7.10412 8.31077 7.07998 8.36906 7.037 8.41203C6.99403 8.45501 6.93574 8.47916 6.87496 8.47916H4.12496C4.06418 8.47916 4.00589 8.45501 3.96291 8.41203C3.91994 8.36906 3.89579 8.31077 3.89579 8.24999Z" fill="#9B03D0"/>
<path fill-rule="evenodd" clip-rule="evenodd" d="M3.89579 8.9375H7.10412V9.625C7.10412 9.74656 7.05584 9.86314 6.96988 9.94909C6.88393 10.035 6.76735 10.0833 6.64579 10.0833H4.35412C4.23257 10.0833 4.11599 10.035 4.03003 9.94909C3.94408 9.86314 3.89579 9.74656 3.89579 9.625V8.9375ZM4.35412 9.39583H6.64579V9.625H4.35412V9.39583Z" fill="#9B03D0"/>
</svg>
