<svg width="16" height="16" viewBox="0 0 16 16" fill="none" xmlns="http://www.w3.org/2000/svg">
<path d="M5.36796 3.89137C6.19656 3.52319 7.09324 3.33309 7.99996 3.33337C9.96996 3.33337 11.5393 4.21004 12.7066 5.24271C13.8773 6.27804 14.6173 7.44737 14.9113 7.96271C14.918 7.97377 14.9217 7.98642 14.922 7.99937C14.9217 8.01346 14.9178 8.02725 14.9106 8.03937C14.6108 8.55883 14.2697 9.05332 13.8906 9.51804C13.8466 9.56863 13.8132 9.62755 13.7924 9.69132C13.7716 9.75508 13.7638 9.82237 13.7696 9.8892C13.7753 9.95602 13.7945 10.021 13.8258 10.0803C13.8572 10.1395 13.9002 10.1919 13.9522 10.2342C14.0043 10.2765 14.0643 10.308 14.1287 10.3266C14.1931 10.3453 14.2606 10.3508 14.3272 10.3428C14.3938 10.3348 14.4581 10.3135 14.5163 10.2802C14.5745 10.2468 14.6254 10.2021 14.666 10.1487C15.0799 9.64174 15.4522 9.10222 15.7793 8.53537C15.8728 8.37297 15.9221 8.18887 15.9222 8.00146C15.9223 7.81406 15.8733 7.6299 15.78 7.46737C15.4566 6.90071 14.6533 5.62937 13.3693 4.49404C12.0826 3.35604 10.288 2.33337 7.99996 2.33337C6.86996 2.33337 5.85663 2.58271 4.96529 2.97537C4.84457 3.0292 4.75007 3.12863 4.70245 3.25194C4.65484 3.37525 4.65799 3.51239 4.71122 3.63338C4.76444 3.75437 4.86341 3.84936 4.98648 3.89758C5.10955 3.94581 5.24671 3.944 5.36796 3.89137ZM12.7773 11.9914C11.552 12.92 9.95529 13.6667 7.99996 13.6667C5.71196 13.6667 3.91663 12.644 2.63063 11.5067C1.34663 10.3707 0.542627 9.09871 0.21996 8.53204C0.126832 8.3697 0.0778862 8.18578 0.0780031 7.99862C0.0781201 7.81146 0.127296 7.6276 0.220627 7.46537C0.817054 6.43145 1.56212 5.49074 2.43196 4.67337L0.87796 3.57471C0.822278 3.53767 0.774592 3.48984 0.737722 3.43405C0.700853 3.37826 0.67555 3.31564 0.663311 3.24989C0.651072 3.18415 0.652146 3.11662 0.666469 3.0513C0.680791 2.98598 0.708072 2.92419 0.746697 2.8696C0.785321 2.81501 0.834504 2.76872 0.891335 2.73347C0.948166 2.69823 1.01149 2.67474 1.07756 2.6644C1.14363 2.65406 1.2111 2.65708 1.27598 2.67328C1.34086 2.68948 1.40184 2.71853 1.45529 2.75871L15.122 12.4254C15.1776 12.4624 15.2253 12.5102 15.2622 12.566C15.2991 12.6218 15.3244 12.6844 15.3366 12.7502C15.3488 12.8159 15.3478 12.8835 15.3335 12.9488C15.3191 13.0141 15.2918 13.0759 15.2532 13.1305C15.2146 13.1851 15.1654 13.2314 15.1086 13.2666C15.0518 13.3019 14.9884 13.3253 14.9224 13.3357C14.8563 13.346 14.7888 13.343 14.7239 13.3268C14.6591 13.3106 14.5981 13.2816 14.5446 13.2414L12.7773 11.9914ZM3.26796 5.26537C2.11463 6.29271 1.38263 7.44737 1.08929 7.96137C1.08193 7.97317 1.078 7.9868 1.07796 8.00071C1.07796 8.01071 1.07996 8.02337 1.08863 8.03737C1.38263 8.55337 2.12263 9.72204 3.29329 10.7574C4.45996 11.79 6.02996 12.6667 7.99996 12.6667C9.55596 12.6667 10.86 12.12 11.916 11.382L9.57196 9.72404C9.17887 10.0829 8.67491 10.2966 8.14368 10.3296C7.61244 10.3627 7.08588 10.2131 6.65133 9.90578C6.21679 9.59842 5.90039 9.15172 5.75463 8.63981C5.60887 8.1279 5.64251 7.58154 5.84996 7.09137L3.26796 5.26604V5.26537Z" fill="black"/>
</svg>
