<svg width="36" height="36" viewBox="0 0 36 36" fill="none" xmlns="http://www.w3.org/2000/svg">
<path d="M4.90504 14.2725C4.79704 14.1865 4.73104 14.0785 4.70704 13.9485C4.68404 13.8185 4.71904 13.6825 4.81204 13.5405C6.38104 11.4535 8.31604 9.81802 10.617 8.63402C12.917 7.44902 15.3715 6.85652 17.9805 6.85652C20.6165 6.85652 23.103 7.42552 25.44 8.56352C27.778 9.70052 29.725 11.3345 31.281 13.4655C31.417 13.6325 31.459 13.789 31.407 13.935C31.354 14.082 31.262 14.1985 31.131 14.2845C31.001 14.3715 30.86 14.4095 30.708 14.3985C30.557 14.3885 30.425 14.3005 30.312 14.1345C28.898 12.1465 27.1005 10.629 24.9195 9.58202C22.7395 8.53402 20.4265 8.01002 17.9805 8.01002C15.5555 8.01002 13.2705 8.54352 11.1255 9.61052C8.98154 10.6765 7.20004 12.1845 5.78104 14.1345C5.65104 14.3215 5.50504 14.4175 5.34304 14.4225C5.18104 14.4285 5.03604 14.3785 4.90504 14.2725ZM22.2465 32.82C19.7235 32.17 17.6465 30.89 16.0155 28.98C14.3855 27.07 13.5705 24.7355 13.5705 21.9765C13.5705 20.7645 14.0105 19.753 14.8905 18.942C15.7705 18.13 16.8205 17.724 18.0405 17.724C19.2605 17.724 20.2995 18.13 21.1575 18.942C22.0175 19.753 22.4475 20.7645 22.4475 21.9765C22.4475 22.8505 22.7765 23.5855 23.4345 24.1815C24.0925 24.7765 24.8685 25.074 25.7625 25.074C26.6565 25.074 27.423 24.774 28.062 24.174C28.7 23.572 29.019 22.8395 29.019 21.9765C29.019 19.0275 27.934 16.549 25.764 14.541C23.596 12.533 21.006 11.529 17.994 11.529C14.983 11.529 12.4005 12.536 10.2465 14.55C8.09254 16.564 7.01554 19.0365 7.01554 21.9675C7.01554 22.5775 7.08604 23.3395 7.22704 24.2535C7.36804 25.1675 7.64154 26.225 8.04754 27.426C8.10354 27.593 8.10254 27.74 8.04454 27.867C7.98654 27.994 7.87654 28.095 7.71454 28.17C7.55254 28.245 7.40154 28.2475 7.26154 28.1775C7.12154 28.1075 7.02404 27.9935 6.96904 27.8355C6.57504 26.8025 6.29204 25.8145 6.12004 24.8715C5.94804 23.9285 5.86204 22.9635 5.86204 21.9765C5.86204 18.6925 7.05404 15.939 9.43804 13.716C11.822 11.494 14.6695 10.383 17.9805 10.383C21.3165 10.383 24.1825 11.494 26.5785 13.716C28.9745 15.938 30.1725 18.6915 30.1725 21.9765C30.1725 23.1855 29.7455 24.195 28.8915 25.005C28.0385 25.815 26.9985 26.22 25.7715 26.22C24.5535 26.22 23.503 25.815 22.62 25.005C21.736 24.195 21.294 23.1855 21.294 21.9765C21.294 21.1135 20.974 20.3815 20.334 19.7805C19.692 19.1795 18.9265 18.879 18.0375 18.879C17.1325 18.879 16.354 19.1765 15.702 19.7715C15.049 20.3675 14.7225 21.1025 14.7225 21.9765C14.7225 24.4595 15.4605 26.5325 16.9365 28.1955C18.4125 29.8595 20.288 31.0165 22.563 31.6665C22.741 31.7235 22.865 31.8185 22.935 31.9515C23.005 32.0835 23.015 32.2255 22.965 32.3775C22.915 32.5105 22.834 32.6305 22.722 32.7375C22.611 32.8425 22.4525 32.87 22.2465 32.82ZM9.54754 6.49352C9.44454 6.56052 9.31704 6.57252 9.16504 6.52952C9.01304 6.48652 8.90604 6.39352 8.84404 6.25052C8.78304 6.10852 8.76304 5.97052 8.78404 5.83652C8.80404 5.70352 8.88554 5.59352 9.02854 5.50652C10.4095 4.73652 11.8625 4.15652 13.3875 3.76652C14.9125 3.37652 16.4625 3.18152 18.0375 3.18152C19.6125 3.18152 21.1505 3.37552 22.6515 3.76352C24.1515 4.15052 25.603 4.70652 27.006 5.43152C27.212 5.53752 27.3285 5.66352 27.3555 5.80952C27.3835 5.95552 27.37 6.09702 27.315 6.23402C27.259 6.37002 27.158 6.46902 27.012 6.53102C26.866 6.59202 26.716 6.57952 26.562 6.49352C25.256 5.76052 23.8825 5.21752 22.4415 4.86452C21.0015 4.51152 19.529 4.33502 18.024 4.33502C16.544 4.33502 15.0945 4.52302 13.6755 4.89902C12.2565 5.27502 10.8805 5.80552 9.54754 6.49352ZM14.262 32.352C12.844 30.841 11.7365 29.2745 10.9395 27.6525C10.1425 26.0305 9.74404 24.138 9.74404 21.975C9.74404 19.739 10.555 17.859 12.177 16.335C13.799 14.811 15.753 14.049 18.039 14.049C20.325 14.049 22.281 14.811 23.907 16.335C25.534 17.859 26.3475 19.7395 26.3475 21.9765C26.3475 22.1495 26.295 22.289 26.19 22.395C26.084 22.501 25.944 22.554 25.77 22.554C25.628 22.554 25.4965 22.501 25.3755 22.395C25.2545 22.289 25.1945 22.1495 25.1955 21.9765C25.1955 20.0635 24.487 18.4565 23.07 17.1555C21.654 15.8545 19.9765 15.204 18.0375 15.204C16.0995 15.204 14.4245 15.854 13.0125 17.154C11.6025 18.456 10.8975 20.063 10.8975 21.975C10.8975 24.039 11.2575 25.7825 11.9775 27.2055C12.6965 28.6275 13.731 30.0685 15.081 31.5285C15.231 31.6815 15.2915 31.834 15.2625 31.986C15.2335 32.138 15.173 32.26 15.081 32.352C14.969 32.464 14.837 32.5245 14.685 32.5335C14.533 32.5435 14.392 32.482 14.262 32.352ZM25.4715 29.7435C23.3035 29.7435 21.4155 29.0075 19.8075 27.5355C18.1985 26.0635 17.394 24.2105 17.394 21.9765C17.394 21.8225 17.4465 21.6875 17.5515 21.5715C17.6565 21.4565 17.7945 21.399 17.9655 21.399C18.1365 21.399 18.2765 21.457 18.3855 21.573C18.4935 21.688 18.5475 21.8225 18.5475 21.9765C18.5475 23.9105 19.2375 25.4965 20.6175 26.7345C21.9955 27.9725 23.6135 28.5915 25.4715 28.5915C25.7175 28.5915 25.9775 28.579 26.2515 28.554C26.5255 28.529 26.804 28.4915 27.087 28.4415C27.235 28.4105 27.3615 28.432 27.4665 28.506C27.5705 28.58 27.6475 28.7025 27.6975 28.8735C27.7475 29.0255 27.72 29.159 27.615 29.274C27.509 29.388 27.375 29.47 27.213 29.52C26.936 29.587 26.6385 29.6415 26.3205 29.6835C26.0025 29.7235 25.7195 29.7435 25.4715 29.7435Z" fill="black"/>
</svg>
