<svg width="14" height="14" viewBox="0 0 14 14" fill="none" xmlns="http://www.w3.org/2000/svg">
<g clip-path="url(#clip0_0_71)">
<path d="M13.5 0H10.1666C9.93629 0 9.64195 0.1645 9.48429 0.380625L9.04095 0.966875C9.00984 1.00812 8.99248 1.06391 8.99269 1.12196C8.9928 1.1507 8.99722 1.17913 9.0057 1.20563C9.01418 1.23213 9.02656 1.25618 9.04212 1.27641C9.05768 1.29663 9.07613 1.31263 9.0964 1.3235C9.11667 1.33437 9.13838 1.33989 9.16028 1.33975C9.20451 1.33946 9.24684 1.31612 9.27795 1.27488L9.72262 0.686C9.81762 0.556062 10.0293 0.4375 10.1666 0.4375H13.5C13.5442 0.4375 13.5865 0.460547 13.6178 0.50157C13.6491 0.542594 13.6666 0.598234 13.6666 0.65625V5.05269C13.6666 5.2325 13.5763 5.51031 13.4753 5.63762L8.78162 11.7504C8.7483 11.7904 8.70462 11.8124 8.65943 11.8117C8.61424 11.8111 8.57093 11.7879 8.53829 11.7469L7.65562 10.5879C7.62419 10.5481 7.58209 10.526 7.53839 10.5265C7.49469 10.527 7.45289 10.55 7.42198 10.5906C7.39108 10.6312 7.37355 10.686 7.37318 10.7434C7.3728 10.8007 7.38959 10.856 7.41995 10.8973L8.30262 12.0562C8.39737 12.1784 8.52462 12.2476 8.65747 12.2489C8.79033 12.2503 8.9184 12.1839 9.01462 12.0636L13.7086 5.95044C13.8746 5.74131 14 5.355 14 5.05269V0.65625C14 0.294437 13.7756 0 13.5 0Z" fill="#2F2F2F"/>
<path d="M13.0126 2.1875C13.0126 1.70494 12.7136 1.3125 12.346 1.3125C11.9783 1.3125 11.6793 1.70494 11.6793 2.1875C11.6793 2.67006 11.9783 3.0625 12.346 3.0625C12.7136 3.0625 13.0126 2.67006 13.0126 2.1875ZM12.0126 2.1875C12.0126 2.10085 12.0321 2.01612 12.0687 1.94403C12.1054 1.87194 12.1575 1.81575 12.2185 1.78254C12.2794 1.74934 12.3466 1.74063 12.4113 1.75752C12.4761 1.7744 12.5355 1.81612 12.5822 1.87739C12.6289 1.93867 12.6607 2.01674 12.6736 2.10173C12.6864 2.18672 12.6798 2.27482 12.6545 2.35486C12.6292 2.4349 12.5864 2.50329 12.5315 2.55138C12.4765 2.59946 12.412 2.62509 12.346 2.625C12.162 2.625 12.0126 2.42856 12.0126 2.1875ZM5.48729 1.75C5.25696 1.75 4.96263 1.9145 4.80463 2.13062L0.140293 8.31294C0.0491751 8.43897 -0.00103727 8.60656 0.000269003 8.7803C0.00157527 8.95403 0.0542978 9.12029 0.147293 9.24394L3.62329 13.8062C3.71829 13.9313 3.84563 14 3.98196 14C4.11396 14 4.23863 13.9348 4.33496 13.8136L9.02863 7.70087C9.19496 7.49175 9.32063 7.10544 9.32063 6.80269V2.40625C9.32063 2.04444 9.09629 1.75 8.82063 1.75H5.48729ZM8.99996 2.40625V6.80269C8.99996 6.98294 8.89696 7.26031 8.79596 7.38762L4.10229 13.5004C4.06864 13.5394 4.02517 13.5606 3.98028 13.56C3.93539 13.5593 3.89228 13.5368 3.85929 13.4969L0.38296 8.93506C0.351785 8.89291 0.333991 8.83677 0.333186 8.77803C0.332382 8.71929 0.348626 8.66235 0.378627 8.61875L5.04329 2.436C5.13829 2.30606 5.34996 2.1875 5.48729 2.1875H8.82063C8.91229 2.1875 8.99996 2.2855 8.99996 2.40625Z" fill="#2F2F2F"/>
<path d="M7.66667 3.0625C7.299 3.0625 7 3.45494 7 3.9375C7 4.42006 7.299 4.8125 7.66667 4.8125C8.03433 4.8125 8.33333 4.42006 8.33333 3.9375C8.33333 3.45494 8.03433 3.0625 7.66667 3.0625ZM7.66667 4.375C7.58084 4.36996 7.4998 4.32167 7.44043 4.24017C7.38105 4.15867 7.34791 4.05026 7.34791 3.9375C7.34791 3.82474 7.38105 3.71632 7.44043 3.63483C7.4998 3.55333 7.58084 3.50504 7.66667 3.5C7.75249 3.50504 7.83353 3.55333 7.89291 3.63483C7.95228 3.71632 7.98542 3.82474 7.98542 3.9375C7.98542 4.05026 7.95228 4.15867 7.89291 4.24017C7.83353 4.32167 7.75249 4.36996 7.66667 4.375Z" fill="#2F2F2F"/>
</g>
<defs>
<clipPath id="clip0_0_71">
<rect width="14" height="14" fill="white"/>
</clipPath>
</defs>
</svg>
