<svg width="20" height="20" viewBox="0 0 20 20" fill="none" xmlns="http://www.w3.org/2000/svg">
<g clip-path="url(#clip0_11_1288)">
<path d="M19.2856 0H14.5237C14.1947 0 13.7742 0.235 13.549 0.54375L12.9156 1.38125C12.8712 1.44018 12.8464 1.51987 12.8467 1.6028C12.8468 1.64386 12.8532 1.68448 12.8653 1.72233C12.8774 1.76019 12.8951 1.79455 12.9173 1.82344C12.9395 1.85233 12.9659 1.87519 12.9948 1.89071C13.0238 1.90624 13.0548 1.91413 13.0861 1.91392C13.1493 1.91351 13.2097 1.88018 13.2542 1.82125L13.8894 0.98C14.0252 0.794375 14.3275 0.625 14.5237 0.625H19.2856C19.3488 0.625 19.4093 0.657924 19.454 0.716529C19.4986 0.775134 19.5237 0.85462 19.5237 0.9375V7.21812C19.5237 7.475 19.3947 7.87187 19.2504 8.05375L12.5452 16.7862C12.4976 16.8435 12.4351 16.8748 12.3706 16.8739C12.306 16.873 12.2442 16.8398 12.1975 16.7812L10.9366 15.1256C10.8917 15.0687 10.8315 15.0372 10.7691 15.0379C10.7067 15.0386 10.647 15.0715 10.6028 15.1294C10.5587 15.1874 10.5336 15.2658 10.5331 15.3477C10.5325 15.4296 10.5565 15.5086 10.5999 15.5675L11.8609 17.2231C11.9962 17.3978 12.178 17.4965 12.3678 17.4985C12.5576 17.5005 12.7406 17.4055 12.878 17.2337L19.5837 8.50062C19.8209 8.20187 19.9999 7.65 19.9999 7.21812V0.9375C19.9999 0.420625 19.6794 0 19.2856 0Z" fill="#9B03D0"/>
<path d="M18.5895 3.125C18.5895 2.43562 18.1623 1.875 17.6371 1.875C17.1119 1.875 16.6847 2.43562 16.6847 3.125C16.6847 3.81438 17.1119 4.375 17.6371 4.375C18.1623 4.375 18.5895 3.81438 18.5895 3.125ZM17.1609 3.125C17.1608 3.00121 17.1887 2.88017 17.241 2.77719C17.2934 2.67421 17.3678 2.59392 17.4549 2.54649C17.5421 2.49906 17.6379 2.48662 17.7305 2.51074C17.823 2.53486 17.9079 2.59446 17.9746 2.68199C18.0413 2.76952 18.0867 2.88106 18.1051 3.00248C18.1235 3.12389 18.114 3.24974 18.0779 3.36408C18.0417 3.47842 17.9806 3.57613 17.9021 3.64482C17.8236 3.71352 17.7314 3.75012 17.6371 3.75C17.3742 3.75 17.1609 3.46938 17.1609 3.125ZM7.83901 2.5C7.50996 2.5 7.08948 2.735 6.86377 3.04375L0.200436 11.8756C0.0702676 12.0557 -0.00146437 12.2951 0.000401728 12.5433C0.00226783 12.7915 0.0775857 13.029 0.210436 13.2056L5.17615 19.7231C5.31186 19.9019 5.49377 20 5.68853 20C5.8771 20 6.0552 19.9069 6.19282 19.7337L12.8981 11.0012C13.1357 10.7025 13.3152 10.1506 13.3152 9.71812V3.4375C13.3152 2.92062 12.9947 2.5 12.6009 2.5H7.83901ZM12.8571 3.4375V9.71812C12.8571 9.97563 12.71 10.3719 12.5657 10.5538L5.86044 19.2862C5.81236 19.342 5.75026 19.3723 5.68613 19.3714C5.62201 19.3704 5.56042 19.3383 5.51329 19.2812L0.547103 12.7644C0.502567 12.7042 0.477147 12.624 0.475998 12.54C0.474848 12.4561 0.498055 12.3748 0.540913 12.3125L7.20472 3.48C7.34044 3.29437 7.64282 3.125 7.83901 3.125H12.6009C12.7319 3.125 12.8571 3.265 12.8571 3.4375Z" fill="#9B03D0"/>
<path d="M10.9524 4.375C10.4271 4.375 10 4.93562 10 5.625C10 6.31438 10.4271 6.875 10.9524 6.875C11.4776 6.875 11.9048 6.31438 11.9048 5.625C11.9048 4.93562 11.4776 4.375 10.9524 4.375ZM10.9524 6.25C10.8298 6.2428 10.714 6.17381 10.6292 6.05739C10.5444 5.94096 10.497 5.78609 10.497 5.625C10.497 5.46391 10.5444 5.30904 10.6292 5.19261C10.714 5.07619 10.8298 5.0072 10.9524 5C11.075 5.0072 11.1908 5.07619 11.2756 5.19261C11.3604 5.30904 11.4077 5.46391 11.4077 5.625C11.4077 5.78609 11.3604 5.94096 11.2756 6.05739C11.1908 6.17381 11.075 6.2428 10.9524 6.25Z" fill="#9B03D0"/>
</g>
<defs>
<clipPath id="clip0_11_1288">
<rect width="20" height="20" fill="white"/>
</clipPath>
</defs>
</svg>
