<svg width="11" height="11" viewBox="0 0 11 11" fill="none" xmlns="http://www.w3.org/2000/svg">
<path d="M5.45326 11C4.05671 11 2.83961 10.544 1.80194 9.63188C0.764271 8.72072 0.163625 7.57259 0 6.18751H0.695063C0.882063 7.37001 1.42083 8.35313 2.31138 9.13688C3.20284 9.92064 4.25013 10.3125 5.45326 10.3125C6.79388 10.3125 7.93101 9.8457 8.86463 8.91207C9.79826 7.97844 10.2653 6.84109 10.2658 5.50001C10.2658 4.15938 9.79872 3.02202 8.86463 2.08794C7.93055 1.15386 6.79342 0.687042 5.45326 0.687501C4.74192 0.687501 4.07321 0.837834 3.44713 1.1385C2.8215 1.43917 2.26921 1.85304 1.79025 2.38013H3.49594V3.06763H0.64075V0.21175H1.32825V1.8535C1.85992 1.27004 2.48279 0.815376 3.19688 0.4895C3.91096 0.163167 4.66309 0 5.45326 0C6.21546 0 6.93001 0.143458 7.59688 0.430375C8.26376 0.717292 8.8463 1.10986 9.34451 1.60806C9.84272 2.10627 10.2355 2.68904 10.5229 3.35638C10.8098 4.02325 10.9533 4.7378 10.9533 5.50001C10.9533 6.26221 10.8098 6.97676 10.5229 7.64363C10.236 8.31051 9.84318 8.89328 9.34451 9.39195C8.8463 9.89016 8.26376 10.2827 7.59688 10.5696C6.93001 10.8566 6.21546 11 5.45326 11ZM7.65532 8.14963L5.14869 5.64301V2.0625H5.83619V5.35701L8.14207 7.66288L7.65532 8.14963Z" fill="white"/>
</svg>
