<svg width="28" height="28" viewBox="0 0 28 28" fill="none" xmlns="http://www.w3.org/2000/svg">
<g opacity="0.6">
<path d="M4.66675 13.9999C4.66675 14.1546 4.72821 14.303 4.8376 14.4124C4.947 14.5218 5.09537 14.5833 5.25008 14.5833H15.5086L12.4204 17.6703C12.3662 17.7244 12.3231 17.7887 12.2938 17.8595C12.2644 17.9303 12.2492 18.0062 12.2492 18.0828C12.2491 18.2376 12.3105 18.3861 12.4198 18.4957C12.5292 18.6052 12.6776 18.6668 12.8324 18.6669C12.9872 18.667 13.1357 18.6056 13.2452 18.4963L17.3286 14.4129C17.4379 14.3035 17.4994 14.1552 17.4994 14.0005C17.4994 13.8458 17.4379 13.6975 17.3286 13.5881L13.2452 9.50475C13.1352 9.39849 12.9879 9.3397 12.8349 9.34103C12.682 9.34235 12.5357 9.4037 12.4275 9.51186C12.3194 9.62001 12.258 9.76632 12.2567 9.91927C12.2554 10.0722 12.3142 10.2196 12.4204 10.3296L15.5086 13.4166H5.25008C5.09537 13.4166 4.947 13.478 4.8376 13.5874C4.72821 13.6968 4.66675 13.8452 4.66675 13.9999ZM20.4167 2.33325H7.58342C6.81006 2.33387 6.06855 2.64136 5.5217 3.18821C4.97486 3.73505 4.66737 4.47656 4.66675 5.24992V9.91658C4.66675 10.0713 4.72821 10.2197 4.8376 10.3291C4.947 10.4385 5.09537 10.4999 5.25008 10.4999C5.40479 10.4999 5.55316 10.4385 5.66256 10.3291C5.77196 10.2197 5.83341 10.0713 5.83341 9.91658V5.24992C5.83341 4.78579 6.01779 4.34067 6.34598 4.01248C6.67417 3.68429 7.11929 3.49992 7.58342 3.49992H20.4167C20.8809 3.49992 21.326 3.68429 21.6542 4.01248C21.9824 4.34067 22.1667 4.78579 22.1667 5.24992V22.7499C22.1667 23.214 21.9824 23.6592 21.6542 23.9874C21.326 24.3155 20.8809 24.4999 20.4167 24.4999H7.58342C7.11929 24.4999 6.67417 24.3155 6.34598 23.9874C6.01779 23.6592 5.83341 23.214 5.83341 22.7499V18.0833C5.83341 17.9285 5.77196 17.7802 5.66256 17.6708C5.55316 17.5614 5.40479 17.4999 5.25008 17.4999C5.09537 17.4999 4.947 17.5614 4.8376 17.6708C4.72821 17.7802 4.66675 17.9285 4.66675 18.0833V22.7499C4.66737 23.5233 4.97486 24.2648 5.5217 24.8116C6.06855 25.3585 6.81006 25.666 7.58342 25.6666H20.4167C21.1901 25.666 21.9316 25.3585 22.4785 24.8116C23.0253 24.2648 23.3328 23.5233 23.3334 22.7499V5.24992C23.3328 4.47656 23.0253 3.73505 22.4785 3.18821C21.9316 2.64136 21.1901 2.33387 20.4167 2.33325Z" fill="black"/>
</g>
</svg>
