<svg width="80" height="80" viewBox="0 0 80 80" fill="none" xmlns="http://www.w3.org/2000/svg">
<path fill-rule="evenodd" clip-rule="evenodd" d="M40 46C44.2435 46 48.3131 44.3143 51.3137 41.3137C54.3143 38.3131 56 34.2435 56 30C56 25.7565 54.3143 21.6869 51.3137 18.6863C48.3131 15.6857 44.2435 14 40 14C35.7565 14 31.6869 15.6857 28.6863 18.6863C25.6857 21.6869 24 25.7565 24 30C24 34.2435 25.6857 38.3131 28.6863 41.3137C31.6869 44.3143 35.7565 46 40 46ZM40 42C41.5759 42 43.1363 41.6896 44.5922 41.0866C46.0481 40.4835 47.371 39.5996 48.4853 38.4853C49.5996 37.371 50.4835 36.0481 51.0866 34.5922C51.6896 33.1363 52 31.5759 52 30C52 28.4241 51.6896 26.8637 51.0866 25.4078C50.4835 23.9519 49.5996 22.629 48.4853 21.5147C47.371 20.4004 46.0481 19.5165 44.5922 18.9134C43.1363 18.3104 41.5759 18 40 18C36.8174 18 33.7652 19.2643 31.5147 21.5147C29.2643 23.7652 28 26.8174 28 30C28 33.1826 29.2643 36.2348 31.5147 38.4853C33.7652 40.7357 36.8174 42 40 42Z" fill="#2F2F2F"/>
<path fill-rule="evenodd" clip-rule="evenodd" d="M80 40C80 62.092 62.092 80 40 80C17.908 80 0 62.092 0 40C0 17.908 17.908 0 40 0C62.092 0 80 17.908 80 40ZM59.26 70.42C53.5019 74.0752 46.8202 76.011 40 76C33.017 76.0108 26.1829 73.981 20.338 70.16C19.858 69.56 19.37 68.94 18.878 68.3C18.3063 67.5502 17.9978 66.6329 18 65.69C18 63.536 19.548 61.73 21.618 61.428C35.308 59.428 44.734 59.6 58.442 61.498C59.4347 61.6419 60.3419 62.1402 60.9958 62.9008C61.6498 63.6614 62.0065 64.6329 62 65.636C62 66.596 61.67 67.528 61.074 68.256C60.46 69.004 59.854 69.726 59.26 70.42ZM65.97 64.932C65.65 61.188 62.808 58.064 58.99 57.536C44.958 55.594 35.15 55.408 21.04 57.47C17.2 58.03 14.37 61.182 14.034 64.936C7.58465 58.2381 3.98729 49.2981 4 40C4 20.118 20.118 4 40 4C59.882 4 76 20.118 76 40C76.0127 49.2962 72.4169 58.2345 65.97 64.932Z" fill="#2F2F2F"/>
</svg>
