<svg width="16" height="16" viewBox="0 0 16 16" fill="none" xmlns="http://www.w3.org/2000/svg">
<path d="M3.99999 4.75H6.49373C6.63061 4.74313 9.90311 4.53875 13.0175 1.92688C13.1268 1.83506 13.2599 1.77633 13.4014 1.75757C13.5429 1.73882 13.6868 1.76082 13.8162 1.821C13.9456 1.88118 14.0552 1.97703 14.132 2.09731C14.2089 2.21758 14.2498 2.35728 14.25 2.5V12.5C14.2509 12.6428 14.2106 12.7829 14.1338 12.9034C14.0571 13.0239 13.9473 13.1197 13.8175 13.1794C13.718 13.2255 13.6097 13.2496 13.5 13.25C13.3239 13.2496 13.1537 13.187 13.0194 13.0731C10.3656 10.8469 7.59686 10.37 6.75186 10.2731V12.5413C6.75204 12.6649 6.72167 12.7866 6.66344 12.8957C6.60521 13.0047 6.52094 13.0976 6.41811 13.1663L5.73061 13.6244C5.63094 13.6908 5.51681 13.7324 5.39776 13.7457C5.27871 13.759 5.15821 13.7436 5.04634 13.7008C4.93447 13.6579 4.8345 13.5889 4.75477 13.4995C4.67505 13.4101 4.6179 13.3029 4.58811 13.1869L3.80749 10.2438C3.09516 10.1957 2.42946 9.87248 1.95112 9.34247C1.47279 8.81246 1.21933 8.1172 1.24433 7.40369C1.26933 6.69019 1.57083 6.01438 2.08509 5.51915C2.59935 5.02392 3.28605 4.7481 3.99999 4.75ZM6.74999 9.76875C7.59561 9.85313 10.5 10.3075 13.3387 12.6906C13.3751 12.7213 13.4195 12.741 13.4667 12.7474C13.5139 12.7537 13.5619 12.7464 13.6051 12.7264C13.6483 12.7064 13.6849 12.6744 13.7106 12.6343C13.7362 12.5942 13.7499 12.5476 13.75 12.5V2.5C13.75 2.45254 13.7365 2.40605 13.711 2.36598C13.6855 2.32592 13.6492 2.29393 13.6062 2.27375C13.5718 2.25829 13.5346 2.25019 13.4969 2.25C13.4383 2.25107 13.3822 2.27327 13.3387 2.3125C10.5 4.69313 7.59561 5.1475 6.74999 5.23188V9.76875ZM5.07061 13.0625C5.08031 13.1014 5.09921 13.1374 5.12573 13.1674C5.15225 13.1975 5.1856 13.2207 5.22297 13.2352C5.26035 13.2496 5.30065 13.2549 5.34048 13.2505C5.38032 13.2461 5.41852 13.2322 5.45186 13.21L6.13936 12.7519C6.17361 12.729 6.20168 12.6981 6.22109 12.6618C6.2405 12.6255 6.25064 12.5849 6.25061 12.5438V10.25H4.32561L5.07061 13.0625ZM3.99999 9.75H6.24999V5.25H3.99999C3.40325 5.25 2.83095 5.48706 2.409 5.90901C1.98704 6.33097 1.74999 6.90327 1.74999 7.5C1.74999 8.09674 1.98704 8.66904 2.409 9.09099C2.83095 9.51295 3.40325 9.75 3.99999 9.75Z" fill="#2F2F2F"/>
</svg>
