<svg width="28" height="28" viewBox="0 0 28 28" fill="none" xmlns="http://www.w3.org/2000/svg">
<g opacity="0.6">
<path d="M3.5 1.16675H17.983L24.5 7.68375V26.8334H3.5V1.16675ZM5.83333 3.50008V24.5001H22.1667V8.64975L17.017 3.50008H5.83333ZM14 10.5001C13.5359 10.5001 13.0908 10.6845 12.7626 11.0126C12.4344 11.3408 12.25 11.786 12.25 12.2501C12.25 12.7142 12.4344 13.1593 12.7626 13.4875C13.0908 13.8157 13.5359 14.0001 14 14.0001C14.4641 14.0001 14.9092 13.8157 15.2374 13.4875C15.5656 13.1593 15.75 12.7142 15.75 12.2501C15.75 11.786 15.5656 11.3408 15.2374 11.0126C14.9092 10.6845 14.4641 10.5001 14 10.5001ZM9.91667 12.2501C9.91667 11.7139 10.0223 11.1829 10.2275 10.6875C10.4327 10.192 10.7335 9.7419 11.1126 9.36273C11.4918 8.98356 11.942 8.68278 12.4374 8.47757C12.9328 8.27237 13.4638 8.16675 14 8.16675C14.5362 8.16675 15.0672 8.27237 15.5626 8.47757C16.058 8.68278 16.5082 8.98356 16.8874 9.36273C17.2665 9.7419 17.5673 10.192 17.7725 10.6875C17.9777 11.1829 18.0833 11.7139 18.0833 12.2501C18.0833 13.333 17.6531 14.3717 16.8874 15.1374C16.1216 15.9032 15.083 16.3334 14 16.3334C12.917 16.3334 11.8784 15.9032 11.1126 15.1374C10.3469 14.3717 9.91667 13.333 9.91667 12.2501ZM7 22.1667C7 20.9291 7.49166 19.7421 8.36683 18.8669C9.242 17.9917 10.429 17.5001 11.6667 17.5001H16.3333C17.571 17.5001 18.758 17.9917 19.6332 18.8669C20.5083 19.7421 21 20.9291 21 22.1667V23.3334H18.6667V22.1667C18.6667 21.5479 18.4208 20.9544 17.9832 20.5168C17.5457 20.0792 16.9522 19.8334 16.3333 19.8334H11.6667C11.0478 19.8334 10.4543 20.0792 10.0168 20.5168C9.57917 20.9544 9.33333 21.5479 9.33333 22.1667V23.3334H7V22.1667Z" fill="black"/>
</g>
</svg>
