<svg width="16" height="16" viewBox="0 0 16 16" fill="none" xmlns="http://www.w3.org/2000/svg">
<path d="M8.00002 11.5133C7.24091 11.5133 6.50535 11.6533 5.79335 11.9333C5.08135 12.2129 4.41958 12.6411 3.80802 13.218V13.2567C3.8418 13.282 3.8758 13.3011 3.91002 13.314C3.94424 13.3269 3.98269 13.3333 4.02535 13.3333H11.9487C11.9914 13.3333 12.0278 13.3269 12.058 13.314C12.0878 13.3011 12.1198 13.282 12.154 13.2567V13.218C11.5589 12.6411 10.9098 12.2127 10.2067 11.9327C9.50313 11.6527 8.76758 11.5127 8.00002 11.5127M3.33335 12.746C3.93335 12.1571 4.63069 11.6933 5.42535 11.3547C6.22002 11.016 7.07824 10.8465 8.00002 10.846C8.92224 10.846 9.78069 11.0156 10.5754 11.3547C11.37 11.6938 12.0671 12.1576 12.6667 12.746V4.41001C12.6667 4.30779 12.624 4.21379 12.5387 4.12801C12.4529 4.04268 12.3589 4.00001 12.2567 4.00001H3.74335C3.64113 4.00001 3.54713 4.04268 3.46135 4.12801C3.37602 4.21379 3.33335 4.30779 3.33335 4.41001V12.746ZM8.00002 9.00001C7.44091 9.00001 6.9678 8.80646 6.58069 8.41935C6.19358 8.03224 6.00002 7.55912 6.00002 7.00001C6.00002 6.4409 6.19358 5.96779 6.58069 5.58068C6.9678 5.19357 7.44091 5.00001 8.00002 5.00001C8.55913 5.00001 9.03224 5.19357 9.41935 5.58068C9.80646 5.96779 10 6.4409 10 7.00001C10 7.55912 9.80646 8.03224 9.41935 8.41935C9.03224 8.80646 8.55913 9.00001 8.00002 9.00001ZM8.00002 8.33335C8.36313 8.33335 8.67624 8.20201 8.93935 7.93935C9.20202 7.67624 9.33335 7.36312 9.33335 7.00001C9.33335 6.6369 9.20202 6.32379 8.93935 6.06068C8.67624 5.79801 8.36313 5.66668 8.00002 5.66668C7.63691 5.66668 7.3238 5.79801 7.06069 6.06068C6.79802 6.32379 6.66669 6.6369 6.66669 7.00001C6.66669 7.36312 6.79802 7.67624 7.06069 7.93935C7.3238 8.20201 7.63691 8.33335 8.00002 8.33335ZM3.74335 14C3.43669 14 3.18069 13.8973 2.97535 13.692C2.76958 13.4862 2.66669 13.23 2.66669 12.9233V4.41001C2.66669 4.10335 2.76958 3.84735 2.97535 3.64201C3.18069 3.43624 3.43669 3.33335 3.74335 3.33335H4.92335V1.84668H5.64135V3.33335H10.41V1.84668H11.0767V3.33335H12.2567C12.5634 3.33335 12.8194 3.43624 13.0247 3.64201C13.2305 3.84735 13.3334 4.10335 13.3334 4.41001V12.9233C13.3334 13.23 13.2307 13.486 13.0254 13.6913C12.8196 13.8971 12.5634 14 12.2567 14H3.74335ZM8.00002 13.3333H12.1534H3.80869H8.00002Z" fill="#2F2F2F"/>
</svg>
