<svg width="12" height="11" viewBox="0 0 12 11" fill="none" xmlns="http://www.w3.org/2000/svg">
<path d="M11.25 2H1.25C1.05109 2 0.860322 1.92098 0.71967 1.78033C0.579018 1.63968 0.5 1.44891 0.5 1.25C0.5 1.05109 0.579018 0.860322 0.71967 0.71967C0.860322 0.579018 1.05109 0.5 1.25 0.5H9.75C9.8163 0.5 9.87989 0.473661 9.92678 0.426777C9.97366 0.379893 10 0.316304 10 0.25C10 0.183696 9.97366 0.120107 9.92678 0.0732234C9.87989 0.0263393 9.8163 0 9.75 0H1.25C0.918479 0 0.600537 0.131696 0.366117 0.366117C0.131696 0.600537 0 0.918479 0 1.25V9.25C0 9.58152 0.131696 9.89946 0.366117 10.1339C0.600537 10.3683 0.918479 10.5 1.25 10.5H11.25C11.4489 10.5 11.6397 10.421 11.7803 10.2803C11.921 10.1397 12 9.94891 12 9.75V2.75C12 2.55109 11.921 2.36032 11.7803 2.21967C11.6397 2.07902 11.4489 2 11.25 2ZM11.5 9.75C11.5 9.8163 11.4737 9.87989 11.4268 9.92678C11.3799 9.97366 11.3163 10 11.25 10H1.25C1.05109 10 0.860322 9.92098 0.71967 9.78033C0.579018 9.63968 0.5 9.44891 0.5 9.25V2.25C0.716071 2.41285 0.979434 2.50064 1.25 2.5H11.25C11.3163 2.5 11.3799 2.52634 11.4268 2.57322C11.4737 2.62011 11.5 2.6837 11.5 2.75V9.75ZM9.5 6C9.5 6.09889 9.47068 6.19556 9.41574 6.27779C9.36079 6.36001 9.2827 6.4241 9.19134 6.46194C9.09998 6.49978 8.99944 6.50969 8.90245 6.49039C8.80546 6.4711 8.71637 6.42348 8.64645 6.35355C8.57652 6.28363 8.5289 6.19454 8.50961 6.09755C8.49031 6.00056 8.50022 5.90002 8.53806 5.80866C8.5759 5.7173 8.63999 5.63921 8.72221 5.58426C8.80444 5.52932 8.90111 5.5 9 5.5C9.13261 5.5 9.25979 5.55268 9.35355 5.64645C9.44732 5.74021 9.5 5.86739 9.5 6Z" fill="white"/>
</svg>
