<svg width="18" height="18" viewBox="0 0 18 18" fill="none" xmlns="http://www.w3.org/2000/svg">
<path d="M11.9609 4.37775C11.0287 3.96354 10.02 3.74968 8.99991 3.75C6.78366 3.75 5.01816 4.73625 3.70491 5.898C2.38791 7.06275 1.55541 8.37825 1.22466 8.958C1.21708 8.97045 1.21295 8.98468 1.21266 8.99925C1.21294 9.0151 1.21733 9.03061 1.22541 9.04425C1.56266 9.62864 1.9464 10.1849 2.37291 10.7078C2.42245 10.7647 2.46004 10.831 2.48343 10.9027C2.50682 10.9744 2.51555 11.0501 2.50908 11.1253C2.50261 11.2005 2.48109 11.2736 2.44579 11.3403C2.41049 11.4069 2.36213 11.4658 2.3036 11.5135C2.24507 11.5611 2.17755 11.5964 2.10508 11.6174C2.0326 11.6384 1.95665 11.6446 1.88173 11.6356C1.80681 11.6266 1.73447 11.6027 1.669 11.5652C1.60354 11.5276 1.54629 11.4773 1.50066 11.4172C1.03503 10.8469 0.616171 10.2399 0.248158 9.60225C0.142956 9.41954 0.0875225 9.21243 0.0873909 9.0016C0.0872593 8.79077 0.142435 8.58359 0.247408 8.40075C0.611158 7.76325 1.51491 6.333 2.95941 5.05575C4.40691 3.7755 6.42591 2.625 8.99991 2.625C10.2712 2.625 11.4112 2.9055 12.4139 3.34725C12.5497 3.4078 12.656 3.51967 12.7096 3.65839C12.7632 3.79711 12.7596 3.95139 12.6997 4.08751C12.6399 4.22362 12.5285 4.33049 12.3901 4.38474C12.2516 4.43899 12.0973 4.43695 11.9609 4.37775ZM3.62541 13.4902C5.00391 14.535 6.80016 15.375 8.99991 15.375C11.5739 15.375 13.5937 14.2245 15.0404 12.945C16.4849 11.667 17.3894 10.236 17.7524 9.5985C17.8572 9.41586 17.9122 9.20895 17.9121 8.9984C17.912 8.78785 17.8567 8.58101 17.7517 8.3985C17.0807 7.23534 16.2425 6.17704 15.2639 5.2575L17.0122 4.0215C17.0748 3.97984 17.1284 3.92603 17.1699 3.86326C17.2114 3.8005 17.2399 3.73005 17.2536 3.65609C17.2674 3.58212 17.2662 3.50615 17.2501 3.43266C17.234 3.35918 17.2033 3.28967 17.1598 3.22825C17.1164 3.16684 17.061 3.11476 16.9971 3.07511C16.9332 3.03546 16.8619 3.00903 16.7876 2.9974C16.7133 2.98577 16.6374 2.98917 16.5644 3.00739C16.4914 3.02561 16.4228 3.0583 16.3627 3.1035L0.987658 13.9785C0.925016 14.0202 0.871368 14.074 0.829891 14.1367C0.788414 14.1995 0.759947 14.27 0.746178 14.3439C0.732409 14.4179 0.733618 14.4938 0.749731 14.5673C0.765844 14.6408 0.796534 14.7103 0.839987 14.7717C0.883438 14.8332 0.93877 14.8852 1.0027 14.9249C1.06664 14.9645 1.13788 14.991 1.21221 15.0026C1.28654 15.0142 1.36244 15.0108 1.43543 14.9926C1.50843 14.9744 1.57702 14.9417 1.63716 14.8965L3.62541 13.4902ZM14.3234 5.9235C15.6209 7.07925 16.4444 8.37825 16.7744 8.9565C16.7827 8.96977 16.7871 8.9851 16.7872 9.00075C16.7872 9.012 16.7849 9.02625 16.7752 9.042C16.4444 9.6225 15.6119 10.9373 14.2949 12.102C12.9824 13.2638 11.2162 14.25 8.99991 14.25C7.24941 14.25 5.78241 13.635 4.59441 12.8048L7.23141 10.9395C7.67363 11.3432 8.24059 11.5836 8.83823 11.6208C9.43586 11.658 10.0283 11.4897 10.5171 11.144C11.006 10.7982 11.3619 10.2956 11.5259 9.71974C11.6899 9.14384 11.652 8.52919 11.4187 7.97775L14.3234 5.92425V5.9235Z" fill="black"/>
</svg>
