<svg width="28" height="28" viewBox="0 0 28 28" fill="none" xmlns="http://www.w3.org/2000/svg">
<g opacity="0.6">
<path d="M11.0833 11.6667C11.0833 12.1309 10.8989 12.576 10.5707 12.9042C10.2425 13.2324 9.79738 13.4167 9.33325 13.4167C8.86912 13.4167 8.424 13.2324 8.09582 12.9042C7.76763 12.576 7.58325 12.1309 7.58325 11.6667C7.58325 11.2026 7.76763 10.7575 8.09582 10.4293C8.424 10.1011 8.86912 9.91675 9.33325 9.91675C9.79738 9.91675 10.2425 10.1011 10.5707 10.4293C10.8989 10.7575 11.0833 11.2026 11.0833 11.6667ZM6.41659 15.4584C6.41659 15.2263 6.50877 15.0038 6.67287 14.8397C6.83696 14.6756 7.05952 14.5834 7.29159 14.5834H11.3749C11.607 14.5834 11.8295 14.6756 11.9936 14.8397C12.1577 15.0038 12.2499 15.2263 12.2499 15.4584V15.7501C12.2499 15.7501 12.2499 18.0834 9.33325 18.0834C6.41659 18.0834 6.41659 15.7501 6.41659 15.7501V15.4584ZM14.5833 11.8126C14.5833 11.4101 14.9099 11.0834 15.3124 11.0834H20.8541C20.9498 11.0834 21.0447 11.1023 21.1331 11.1389C21.2216 11.1756 21.302 11.2293 21.3697 11.297C21.4374 11.3647 21.4911 11.4451 21.5278 11.5335C21.5644 11.622 21.5833 11.7168 21.5833 11.8126C21.5833 11.9083 21.5644 12.0032 21.5278 12.0916C21.4911 12.1801 21.4374 12.2605 21.3697 12.3282C21.302 12.3959 21.2216 12.4496 21.1331 12.4862C21.0447 12.5229 20.9498 12.5417 20.8541 12.5417H15.3124C14.9099 12.5417 14.5833 12.2151 14.5833 11.8126ZM15.3124 15.1667C15.119 15.1667 14.9336 15.2436 14.7968 15.3803C14.6601 15.5171 14.5833 15.7025 14.5833 15.8959C14.5833 16.0893 14.6601 16.2748 14.7968 16.4115C14.9336 16.5483 15.119 16.6251 15.3124 16.6251H20.8541C21.0475 16.6251 21.2329 16.5483 21.3697 16.4115C21.5064 16.2748 21.5833 16.0893 21.5833 15.8959C21.5833 15.7025 21.5064 15.5171 21.3697 15.3803C21.2329 15.2436 21.0475 15.1667 20.8541 15.1667H15.3124ZM2.33325 7.14591C2.33325 6.4884 2.59445 5.85781 3.05938 5.39288C3.52432 4.92794 4.1549 4.66675 4.81242 4.66675H23.1874C23.8449 4.66675 24.4755 4.92794 24.9405 5.39288C25.4054 5.85781 25.6666 6.4884 25.6666 7.14591V20.8542C25.6666 21.5118 25.4054 22.1423 24.9405 22.6073C24.4755 23.0722 23.8449 23.3334 23.1874 23.3334H4.81242C4.1549 23.3334 3.52432 23.0722 3.05938 22.6073C2.59445 22.1423 2.33325 21.5118 2.33325 20.8542V7.14591ZM4.81242 6.12508C4.54168 6.12508 4.28202 6.23263 4.09058 6.42408C3.89914 6.61552 3.79159 6.87517 3.79159 7.14591V20.8542C3.79159 21.4183 4.24892 21.8751 4.81242 21.8751H23.1874C23.4582 21.8751 23.7178 21.7675 23.9093 21.5761C24.1007 21.3846 24.2083 21.125 24.2083 20.8542V7.14591C24.2083 6.87517 24.1007 6.61552 23.9093 6.42408C23.7178 6.23263 23.4582 6.12508 23.1874 6.12508H4.81242Z" fill="black"/>
</g>
</svg>
