<svg width="28" height="28" viewBox="0 0 28 28" fill="none" xmlns="http://www.w3.org/2000/svg">
<g opacity="0.6">
<path d="M22.0851 23.3334C20.1189 23.3334 18.1029 22.8411 16.0371 21.8564C13.9713 20.871 12.0525 19.4885 10.2807 17.7089C8.50742 15.9286 7.12841 14.0094 6.14375 11.9514C5.15908 9.89342 4.66675 7.8813 4.66675 5.91508C4.66675 5.55886 4.78341 5.26214 5.01675 5.02491C5.25008 4.78614 5.54175 4.66675 5.89175 4.66675H8.77691C9.09425 4.66675 9.37114 4.76669 9.60758 4.96658C9.84403 5.16647 10.0039 5.42236 10.0871 5.73425L10.6657 8.51675C10.7202 8.84342 10.7105 9.12847 10.6366 9.37191C10.5635 9.61536 10.4344 9.81486 10.2492 9.97041L7.68842 12.3574C8.16753 13.227 8.6968 14.0343 9.27625 14.7794C9.85569 15.5253 10.474 16.2319 11.1312 16.8992C11.8079 17.5759 12.5367 18.2059 13.3176 18.7892C14.0985 19.3718 14.9556 19.9217 15.8889 20.4389L18.3844 17.8991C18.5742 17.6945 18.7877 17.5596 19.0249 17.4942C19.2621 17.4297 19.5243 17.4169 19.8112 17.4557L22.2659 17.9574C22.5825 18.0352 22.8395 18.1946 23.0371 18.4357C23.2346 18.6776 23.3334 18.9549 23.3334 19.2676V22.1084C23.3334 22.4584 23.2144 22.7501 22.9764 22.9834C22.7392 23.2168 22.4413 23.3334 22.0851 23.3334ZM7.14008 11.2631L9.38008 9.20275C9.45475 9.14364 9.50297 9.06158 9.52475 8.95658C9.54808 8.85158 9.54419 8.75436 9.51308 8.66492L8.99625 6.19158C8.96592 6.07258 8.91342 5.98314 8.83875 5.92325C8.76408 5.86336 8.66725 5.83341 8.54825 5.83341H6.15425C6.0648 5.83341 5.99014 5.86336 5.93025 5.92325C5.87036 5.98314 5.84041 6.0578 5.84041 6.14725C5.86297 6.94447 5.98742 7.77669 6.21375 8.64391C6.44164 9.51192 6.74964 10.385 7.14008 11.2631ZM16.9996 20.9861C17.7882 21.3765 18.6283 21.6655 19.5196 21.8529C20.4125 22.0396 21.1903 22.1395 21.8529 22.1528C21.9424 22.1528 22.017 22.1232 22.0769 22.0641C22.1368 22.0042 22.1667 21.9291 22.1667 21.8389V19.4974C22.1667 19.3776 22.1368 19.2804 22.0769 19.2057C22.017 19.1303 21.9276 19.0778 21.8086 19.0482L19.6502 18.6061C19.56 18.5765 19.4811 18.5726 19.4134 18.5944C19.3465 18.6177 19.2757 18.6664 19.2011 18.7402L16.9996 20.9861Z" fill="black"/>
</g>
</svg>
