<svg width="18" height="18" viewBox="0 0 18 18" fill="none" xmlns="http://www.w3.org/2000/svg">
<path d="M0.867826 8.88609C0.891733 8.83266 1.46689 7.55789 2.75431 6.27047C3.94681 5.07797 5.99783 3.65625 9.00017 3.65625C12.0025 3.65625 14.0535 5.07797 15.246 6.27047C16.5335 7.55789 17.1086 8.83266 17.1325 8.88609C17.1482 8.92215 17.1562 8.96104 17.1562 9.00035C17.1562 9.03966 17.1482 9.07855 17.1325 9.11461C17.1086 9.16875 16.5335 10.4428 15.246 11.7302C14.0507 12.9255 12.0018 14.3438 9.00017 14.3438C5.99853 14.3438 3.94681 12.9227 2.75431 11.7302C1.46689 10.4428 0.891733 9.16875 0.867826 9.11461C0.852171 9.07855 0.844091 9.03966 0.844091 9.00035C0.844091 8.96104 0.852171 8.92215 0.867826 8.88609ZM3.16705 11.347C4.78915 12.9642 6.75298 13.7812 9.00298 13.7812C11.253 13.7812 13.214 12.9621 14.8389 11.347C15.5303 10.6575 16.1118 9.86595 16.563 9C16.1109 8.13385 15.5285 7.34228 14.8361 6.65297C13.2112 5.03789 11.2502 4.21875 9.00017 4.21875C6.75017 4.21875 4.78916 5.03789 3.16423 6.65297C2.47191 7.34235 1.88951 8.13391 1.43736 9C1.88943 9.86614 2.47185 10.6577 3.16423 11.347H3.16705ZM9.00017 5.90625C9.61206 5.90625 10.2102 6.0877 10.719 6.42764C11.2277 6.76759 11.6243 7.25076 11.8584 7.81607C12.0926 8.38138 12.1538 9.00343 12.0345 9.60356C11.9151 10.2037 11.6205 10.7549 11.1878 11.1876C10.7551 11.6203 10.2039 11.9149 9.60373 12.0343C9.0036 12.1537 8.38155 12.0924 7.81624 11.8583C7.25093 11.6241 6.76776 11.2276 6.42781 10.7188C6.08787 10.21 5.90642 9.61189 5.90642 9C5.90735 8.17977 6.2336 7.3934 6.81359 6.81342C7.39358 6.23343 8.17994 5.90718 9.00017 5.90625ZM9.00017 11.5312C9.5008 11.5312 9.9902 11.3828 10.4065 11.1047C10.8227 10.8265 11.1472 10.4312 11.3387 9.96867C11.5303 9.50614 11.5805 8.99719 11.4828 8.50618C11.3851 8.01516 11.144 7.56414 10.79 7.21014C10.436 6.85613 9.98501 6.61506 9.49399 6.51739C9.00298 6.41972 8.49403 6.46985 8.0315 6.66143C7.56898 6.85301 7.17365 7.17745 6.89551 7.59371C6.61738 8.00997 6.46892 8.49937 6.46892 9C6.46892 9.67133 6.73561 10.3152 7.21031 10.7899C7.68501 11.2646 8.32884 11.5312 9.00017 11.5312Z" fill="black"/>
</svg>
