<svg width="50" height="50" viewBox="0 0 50 50" fill="none" xmlns="http://www.w3.org/2000/svg">
<path d="M36.4386 47.5257C36.9408 44.6938 39.7711 38.0035 45.5616 31.1129C48.792 27.2688 50.363 22.2988 49.929 17.2964C49.4951 12.2939 47.0916 7.66875 43.2475 4.43834C39.4034 1.20794 34.4334 -0.363086 29.431 0.0708853C24.4285 0.504856 19.8033 2.90827 16.5729 6.75241C10.7825 13.6429 4.67761 17.5815 1.98254 18.5543C1.48736 18.7315 1.04768 19.0361 0.70787 19.4374C0.368057 19.8388 0.140139 20.3227 0.0471232 20.8403C-0.0458955 21.3579 -0.000718853 21.8909 0.178089 22.3855C0.356896 22.88 0.663007 23.3187 1.06553 23.6571L9.50084 30.7457C8.28282 32.5816 7.78324 34.8017 8.09742 36.9824C8.41159 39.1631 9.51753 41.1519 11.2043 42.5693C12.891 43.9868 15.0405 44.7337 17.2427 44.6676C19.445 44.6016 21.5458 43.7272 23.1446 42.2112L31.5799 49.2998C31.9821 49.6354 32.4655 49.8594 32.9816 49.9494C33.4976 50.0393 34.0283 49.9921 34.5203 49.8125C35.0124 49.6328 35.4486 49.327 35.7853 48.9256C36.122 48.5243 36.3473 48.0415 36.4386 47.5257ZM12.4763 41.0556C11.1924 39.9765 10.3403 38.4709 10.0762 36.8146C9.81204 35.1584 10.1535 33.4624 11.038 32.0374L21.6074 40.9194C20.3561 42.0361 18.7442 42.6645 17.0672 42.6895C15.3903 42.7145 13.7604 42.1345 12.4763 41.0556ZM33.8405 47.9455C33.6774 48.0072 33.5008 48.024 33.329 47.9941C33.1572 47.9642 32.9966 47.8888 32.8639 47.7757L2.34766 22.1314C2.21337 22.0202 2.11139 21.875 2.05237 21.7109C1.99335 21.5468 1.97946 21.3699 2.01214 21.1986C2.04264 21.0264 2.11793 20.8652 2.23046 20.7313C2.34299 20.5974 2.48879 20.4955 2.6532 20.4358C6.12834 19.1813 12.438 14.7706 18.0986 8.03454C20.989 4.59505 25.1273 2.44463 29.6032 2.05634C34.0791 1.66805 38.5259 3.0737 41.9654 5.96406C45.4049 8.85443 47.5553 12.9927 47.9436 17.4686C48.3319 21.9445 46.9262 26.3913 44.0359 29.8308C38.3768 36.5649 35.117 43.5418 34.4797 47.1811C34.4496 47.3534 34.3747 47.5147 34.2625 47.6489C34.1503 47.7831 34.0048 47.8854 33.8405 47.9455Z" fill="#FA0808"/>
</svg>
