<svg width="20" height="20" viewBox="0 0 20 20" fill="none" xmlns="http://www.w3.org/2000/svg">
<g clip-path="url(#clip0_12_1320)">
<path d="M12.7778 14.4444C12.7778 14.5918 12.7192 14.7331 12.615 14.8373C12.5108 14.9415 12.3695 15 12.2222 15H4.44442C4.3222 15 4.20553 15.1111 4.10553 15.1833L2.2222 16.6667V7.77778C2.2222 7.63044 2.28073 7.48913 2.38491 7.38494C2.4891 7.28076 2.63041 7.22223 2.77775 7.22223H4.9222V6.11111H2.77775C2.33572 6.11111 1.9118 6.28671 1.59924 6.59927C1.28668 6.91183 1.11108 7.33575 1.11108 7.77778V17.7778C1.11191 17.881 1.14145 17.9819 1.1964 18.0692C1.25135 18.1565 1.32954 18.2268 1.4222 18.2722C1.51146 18.3128 1.60988 18.3291 1.70746 18.3193C1.80504 18.3096 1.89829 18.2741 1.97775 18.2167L4.83886 16.1111H12.3055C12.5161 16.1173 12.7257 16.0803 12.9213 16.0022C13.117 15.9241 13.2945 15.8067 13.443 15.6572C13.5914 15.5078 13.7076 15.3294 13.7843 15.1332C13.861 14.937 13.8966 14.7272 13.8889 14.5167V13.8889H12.7778V14.4444Z" fill="#9B03D0"/>
<path d="M17.2222 2.22222H7.77775C7.33572 2.22222 6.9118 2.39782 6.59924 2.71038C6.28668 3.02294 6.11108 3.44686 6.11108 3.88889V10.5556C6.11108 10.9976 6.28668 11.4215 6.59924 11.7341C6.9118 12.0466 7.33572 12.2222 7.77775 12.2222H15.3055L17.9611 14.2833C18.04 14.3417 18.133 14.3781 18.2306 14.3888C18.3282 14.3996 18.4269 14.3843 18.5166 14.3444C18.6112 14.2994 18.6911 14.2286 18.7471 14.1401C18.8031 14.0517 18.833 13.9492 18.8333 13.8444V3.88889C18.8335 3.45632 18.6656 3.0406 18.365 2.72959C18.0643 2.41858 17.6545 2.23664 17.2222 2.22222ZM17.7778 12.7444L15.8333 11.2278C15.7363 11.1525 15.6172 11.1115 15.4944 11.1111H7.77775C7.63041 11.1111 7.4891 11.0526 7.38491 10.9484C7.28073 10.8442 7.2222 10.7029 7.2222 10.5556V3.88889C7.2222 3.74155 7.28073 3.60024 7.38491 3.49605C7.4891 3.39186 7.63041 3.33333 7.77775 3.33333H17.2222C17.3707 3.34681 17.5092 3.41412 17.6115 3.52259C17.7138 3.63105 17.7729 3.77318 17.7778 3.92222V12.7444Z" fill="#9B03D0"/>
</g>
<defs>
<clipPath id="clip0_12_1320">
<rect width="20" height="20" fill="white"/>
</clipPath>
</defs>
</svg>
