<svg width="6" height="6" viewBox="0 0 6 6" fill="none" xmlns="http://www.w3.org/2000/svg">
<g clip-path="url(#clip0_0_92)">
<path d="M2.49995 5C2.49988 5.06372 2.47548 5.125 2.43174 5.17134C2.38799 5.21767 2.32821 5.24556 2.2646 5.24929C2.20099 5.25302 2.13835 5.23233 2.08949 5.19143C2.04063 5.15053 2.00922 5.09252 2.0017 5.02925L1.99995 5L1.99995 1.6035L1.4267 2.17675C1.38171 2.22158 1.32134 2.24761 1.25785 2.24955C1.19437 2.25149 1.13252 2.22919 1.08488 2.18718C1.03724 2.14518 1.00737 2.08661 1.00135 2.02338C0.995326 1.96015 1.0136 1.89699 1.05245 1.84675L1.0732 1.82325L2.0307 0.865747C2.1967 0.699497 2.47645 0.805997 2.49845 1.0315L2.49995 1.06025L2.49995 5ZM4.9267 3.82325C4.96974 3.86629 4.9956 3.92357 4.99942 3.98433C5.00324 4.04508 4.98476 4.10515 4.94745 4.15325L4.9267 4.17675L3.9692 5.13425C3.8032 5.3005 3.52345 5.194 3.50145 4.9685L3.49995 4.93975L3.49995 0.999997C3.50002 0.936277 3.52442 0.874989 3.56816 0.828655C3.6119 0.782321 3.67169 0.754438 3.7353 0.750704C3.79891 0.746969 3.86154 0.767665 3.91041 0.808563C3.95927 0.84946 3.99067 0.907473 3.9982 0.970747L3.99995 0.999997L3.99995 4.3965L4.5732 3.82325C4.62008 3.77638 4.68366 3.75005 4.74995 3.75005C4.81624 3.75005 4.87982 3.77638 4.9267 3.82325Z" fill="#9B03D0"/>
</g>
<defs>
<clipPath id="clip0_0_92">
<rect width="5.6875" height="5.6875" fill="white" transform="matrix(0 1.05495 -1.05495 0 6 0)"/>
</clipPath>
</defs>
</svg>
