<svg width="12" height="12" viewBox="0 0 12 12" fill="none" xmlns="http://www.w3.org/2000/svg">
<g clip-path="url(#clip0_2_748)">
<path d="M4.02594 2.9185C4.64739 2.64236 5.3199 2.49978 5.99994 2.5C7.47744 2.5 8.65444 3.1575 9.52994 3.932C10.4079 4.7085 10.9629 5.5855 11.1834 5.972C11.1885 5.9803 11.1912 5.98979 11.1914 5.9995C11.1913 6.01007 11.1883 6.02041 11.1829 6.0295C10.9581 6.41909 10.7023 6.78996 10.4179 7.1385C10.3849 7.17644 10.3599 7.22063 10.3443 7.26846C10.3287 7.31628 10.3228 7.36675 10.3272 7.41687C10.3315 7.46698 10.3458 7.51572 10.3694 7.56017C10.3929 7.60463 10.4251 7.6439 10.4641 7.67564C10.5032 7.70738 10.5482 7.73095 10.5965 7.74493C10.6448 7.75892 10.6954 7.76305 10.7454 7.75706C10.7953 7.75108 10.8436 7.73511 10.8872 7.7101C10.9309 7.68509 10.969 7.65156 10.9994 7.6115C11.3099 7.23128 11.5891 6.82663 11.8344 6.4015C11.9046 6.27969 11.9415 6.14162 11.9416 6.00107C11.9417 5.86051 11.9049 5.72239 11.8349 5.6005C11.5924 5.1755 10.9899 4.222 10.0269 3.3705C9.06194 2.517 7.71594 1.75 5.99994 1.75C5.15244 1.75 4.39244 1.937 3.72394 2.2315C3.6334 2.27187 3.56252 2.34644 3.52681 2.43892C3.4911 2.5314 3.49346 2.63426 3.53338 2.72501C3.5733 2.81575 3.64753 2.88699 3.73983 2.92316C3.83213 2.95932 3.935 2.95797 4.02594 2.9185ZM9.58294 8.9935C8.66394 9.69 7.46644 10.25 5.99994 10.25C4.28394 10.25 2.93744 9.483 1.97294 8.63C1.00994 7.778 0.40694 6.824 0.16494 6.399C0.0950934 6.27724 0.0583841 6.1393 0.0584718 5.99893C0.0585596 5.85856 0.0954412 5.72067 0.16544 5.599C0.61276 4.82356 1.17156 4.11803 1.82394 3.505L0.65844 2.681C0.616678 2.65322 0.580913 2.61735 0.553261 2.57551C0.525609 2.53366 0.506632 2.4867 0.497453 2.43739C0.488274 2.38808 0.489079 2.33743 0.499821 2.28844C0.510563 2.23945 0.531024 2.19311 0.559992 2.15217C0.58896 2.11123 0.625847 2.07651 0.668471 2.05007C0.711094 2.02364 0.758587 2.00602 0.808139 1.99827C0.857691 1.99051 0.908295 1.99278 0.956956 2.00493C1.00562 2.01708 1.05135 2.03886 1.09144 2.069L11.3414 9.319C11.3832 9.34678 11.419 9.38265 11.4466 9.42449C11.4743 9.46634 11.4932 9.5133 11.5024 9.56261C11.5116 9.61192 11.5108 9.66257 11.5001 9.71156C11.4893 9.76055 11.4689 9.80689 11.4399 9.84783C11.4109 9.88877 11.374 9.92349 11.3314 9.94993C11.2888 9.97636 11.2413 9.99398 11.1917 10.0017C11.1422 10.0095 11.0916 10.0072 11.0429 9.99507C10.9943 9.98292 10.9485 9.96114 10.9084 9.931L9.58294 8.9935ZM2.45094 3.949C1.58594 4.7195 1.03694 5.5855 0.81694 5.971C0.811414 5.97985 0.80847 5.99007 0.80844 6.0005C0.80844 6.008 0.80994 6.0175 0.81644 6.028C1.03694 6.415 1.59194 7.2915 2.46994 8.068C3.34494 8.8425 4.52244 9.5 5.99994 9.5C7.16694 9.5 8.14494 9.09 8.93694 8.5365L7.17894 7.293C6.88412 7.56215 6.50615 7.72241 6.10773 7.7472C5.7093 7.772 5.31438 7.65983 4.98847 7.4293C4.66256 7.19878 4.42526 6.86376 4.31594 6.47983C4.20662 6.0959 4.23185 5.68612 4.38744 5.3185L2.45094 3.9495V3.949Z" fill="white"/>
</g>
<defs>
<clipPath id="clip0_2_748">
<rect width="12" height="12" fill="white"/>
</clipPath>
</defs>
</svg>
