<svg width="28" height="28" viewBox="0 0 28 28" fill="none" xmlns="http://www.w3.org/2000/svg">
<g opacity="0.6">
<path d="M14.0001 19.8334C13.3812 19.8334 12.7878 19.5876 12.3502 19.15C11.9126 18.7124 11.6667 18.1189 11.6667 17.5001C11.6667 16.2051 12.7051 15.1667 14.0001 15.1667C14.6189 15.1667 15.2124 15.4126 15.65 15.8502C16.0876 16.2878 16.3334 16.8812 16.3334 17.5001C16.3334 18.1189 16.0876 18.7124 15.65 19.15C15.2124 19.5876 14.6189 19.8334 14.0001 19.8334ZM21.0001 23.3334V11.6667H7.00008V23.3334H21.0001ZM21.0001 9.33341C21.6189 9.33341 22.2124 9.57925 22.65 10.0168C23.0876 10.4544 23.3334 11.0479 23.3334 11.6667V23.3334C23.3334 23.9523 23.0876 24.5457 22.65 24.9833C22.2124 25.4209 21.6189 25.6667 21.0001 25.6667H7.00008C6.38124 25.6667 5.78775 25.4209 5.35017 24.9833C4.91258 24.5457 4.66675 23.9523 4.66675 23.3334V11.6667C4.66675 10.3717 5.70508 9.33341 7.00008 9.33341H8.16675V7.00008C8.16675 5.45298 8.78133 3.96925 9.87529 2.87529C10.9693 1.78133 12.453 1.16675 14.0001 1.16675C14.7661 1.16675 15.5247 1.31763 16.2324 1.61078C16.9401 1.90394 17.5832 2.33362 18.1249 2.87529C18.6665 3.41697 19.0962 4.06003 19.3894 4.76776C19.6825 5.47549 19.8334 6.23404 19.8334 7.00008V9.33341H21.0001ZM14.0001 3.50008C13.0718 3.50008 12.1816 3.86883 11.5252 4.52521C10.8688 5.18158 10.5001 6.07182 10.5001 7.00008V9.33341H17.5001V7.00008C17.5001 6.07182 17.1313 5.18158 16.475 4.52521C15.8186 3.86883 14.9283 3.50008 14.0001 3.50008Z" fill="black"/>
</g>
</svg>
