<svg width="20" height="20" viewBox="0 0 20 20" fill="none" xmlns="http://www.w3.org/2000/svg">
<g clip-path="url(#clip0_12_1326)">
<path d="M19.2857 10C19.2857 12.4627 18.3074 14.8246 16.5659 16.566C14.8245 18.3074 12.4627 19.2857 9.99995 19.2857C7.53722 19.2857 5.17537 18.3074 3.43396 16.566C1.69255 14.8246 0.714233 12.4627 0.714233 10M19.2857 10C19.2857 7.53728 18.3074 5.17542 16.5659 3.43401C14.8245 1.6926 12.4627 0.714287 9.99995 0.714287C7.53722 0.714287 5.17537 1.6926 3.43396 3.43401C1.69255 5.17542 0.714233 7.53728 0.714233 10M19.2857 10H0.714233" stroke="#9B03D0" stroke-linecap="round" stroke-linejoin="round"/>
<path d="M13.5713 10C13.3959 13.3957 12.1452 16.6476 9.9999 19.2857C7.85464 16.6476 6.60389 13.3957 6.42847 10C6.60389 6.6043 7.85464 3.35236 9.9999 0.714287C12.1452 3.35236 13.3959 6.6043 13.5713 10Z" stroke="#9B03D0" stroke-linecap="round" stroke-linejoin="round"/>
</g>
<defs>
<clipPath id="clip0_12_1326">
<rect width="20" height="20" fill="white"/>
</clipPath>
</defs>
</svg>




