<svg width="28" height="28" viewBox="0 0 28 28" fill="none" xmlns="http://www.w3.org/2000/svg">
<g opacity="0.6">
<path d="M16.3333 23.3334H4.08325C3.61912 23.3334 3.174 23.149 2.84582 22.8209C2.51763 22.4927 2.33325 22.0475 2.33325 21.5834V6.41675C2.33325 5.95262 2.51763 5.5075 2.84582 5.17931C3.174 4.85112 3.61912 4.66675 4.08325 4.66675H23.9166C24.3807 4.66675 24.8258 4.85112 25.154 5.17931C25.4822 5.5075 25.6666 5.95262 25.6666 6.41675V13.4512M22.7499 23.9167V16.9167M22.7499 16.9167L19.8333 19.8334M22.7499 16.9167L25.6666 19.8334" stroke="black" stroke-width="4" stroke-linecap="round" stroke-linejoin="round"/>
<path d="M2.33325 6.41675C2.33325 5.95262 2.51763 5.5075 2.84582 5.17931C3.174 4.85112 3.61912 4.66675 4.08325 4.66675H23.9166C24.3807 4.66675 24.8258 4.85112 25.154 5.17931C25.4822 5.5075 25.6666 5.95262 25.6666 6.41675V11.6667H2.33325V6.41675Z" stroke="black" stroke-width="4"/>
<path d="M4.66667 8.16683C4.66667 7.5225 5.189 7.00016 5.83333 7.00016C6.47767 7.00016 7 7.5225 7 8.16683C7 8.81116 6.47767 9.3335 5.83333 9.3335C5.189 9.3335 4.66667 8.81116 4.66667 8.16683Z" fill="black"/>
<path d="M8.16667 8.16683C8.16667 7.5225 8.689 7.00016 9.33333 7.00016C9.97767 7.00016 10.5 7.5225 10.5 8.16683C10.5 8.81116 9.97767 9.3335 9.33333 9.3335C8.689 9.3335 8.16667 8.81116 8.16667 8.16683Z" fill="black"/>
</g>
</svg>
