<svg width="9" height="13" viewBox="0 0 9 13" fill="none" xmlns="http://www.w3.org/2000/svg">
<path d="M6.5 0.8125C6.71549 0.8125 6.92215 0.898102 7.07452 1.05048C7.2269 1.20285 7.3125 1.40951 7.3125 1.625V11.375C7.3125 11.5905 7.2269 11.7972 7.07452 11.9495C6.92215 12.1019 6.71549 12.1875 6.5 12.1875H1.625C1.40951 12.1875 1.20285 12.1019 1.05048 11.9495C0.898103 11.7972 0.8125 11.5905 0.8125 11.375V1.625C0.8125 1.40951 0.898103 1.20285 1.05048 1.05048C1.20285 0.898102 1.40951 0.8125 1.625 0.8125H6.5ZM1.625 0C1.19402 0 0.780698 0.171205 0.475951 0.475951C0.171205 0.780698 0 1.19402 0 1.625V11.375C0 11.806 0.171205 12.2193 0.475951 12.524C0.780698 12.8288 1.19402 13 1.625 13H6.5C6.93098 13 7.3443 12.8288 7.64905 12.524C7.95379 12.2193 8.125 11.806 8.125 11.375V1.625C8.125 1.19402 7.95379 0.780698 7.64905 0.475951C7.3443 0.171205 6.93098 0 6.5 0L1.625 0Z" fill="#9B03D0"/>
<path d="M4.0625 11.375C4.27799 11.375 4.48465 11.2894 4.63702 11.137C4.7894 10.9847 4.875 10.778 4.875 10.5625C4.875 10.347 4.7894 10.1403 4.63702 9.98798C4.48465 9.8356 4.27799 9.75 4.0625 9.75C3.84701 9.75 3.64035 9.8356 3.48798 9.98798C3.3356 10.1403 3.25 10.347 3.25 10.5625C3.25 10.778 3.3356 10.9847 3.48798 11.137C3.64035 11.2894 3.84701 11.375 4.0625 11.375Z" fill="#9B03D0"/>
</svg>
